<svg width="843" height="237" viewBox="0 0 843 237" fill="none" xmlns="http://www.w3.org/2000/svg">
<g clip-path="url(#clip0_76_2843)">
<path d="M516 196.451H500.906V216.808C500.906 216.808 494.437 220.706 486.244 220.706C478.05 220.706 464.25 213.343 464.25 196.884C464.25 180.425 478.05 173.494 487.969 173.494L479.702 160C463.37 163.126 447 175.42 447 196.884C447 222.006 468.562 235 485.812 235C499.613 235 511.831 228.359 516 225.038V196.451Z" fill="#1C8EC2"/>
<path d="M506.944 181.724L516 170.463C513.575 167.563 506.53 162.055 496.163 160L487.969 173.494C495.904 173.494 503.925 178.981 506.944 181.724Z" fill="#1C8EC2"/>
<path d="M644.958 236.04C639.273 236.04 634.038 235.104 629.254 233.232C624.47 231.36 620.31 228.76 616.774 225.432C613.238 222.035 610.5 218.083 608.558 213.576C606.617 209 605.646 204.008 605.646 198.6C605.646 193.192 606.617 188.235 608.558 183.728C610.5 179.152 613.238 175.2 616.774 171.872C620.31 168.475 624.47 165.84 629.254 163.968C634.038 162.096 639.238 161.16 644.854 161.16C650.54 161.16 655.74 162.096 660.454 163.968C665.238 165.84 669.398 168.475 672.934 171.872C676.47 175.2 679.209 179.152 681.15 183.728C683.092 188.235 684.062 193.192 684.062 198.6C684.062 204.008 683.092 209 681.15 213.576C679.209 218.152 676.47 222.104 672.934 225.432C669.398 228.76 665.238 231.36 660.454 233.232C655.74 235.104 650.574 236.04 644.958 236.04ZM644.854 224.184C648.529 224.184 651.926 223.56 655.046 222.312C658.166 221.064 660.87 219.296 663.158 217.008C665.446 214.651 667.214 211.947 668.462 208.896C669.78 205.776 670.438 202.344 670.438 198.6C670.438 194.856 669.78 191.459 668.462 188.408C667.214 185.288 665.446 182.584 663.158 180.296C660.87 177.939 658.166 176.136 655.046 174.888C651.926 173.64 648.529 173.016 644.854 173.016C641.18 173.016 637.782 173.64 634.662 174.888C631.612 176.136 628.908 177.939 626.55 180.296C624.262 182.584 622.46 185.288 621.142 188.408C619.894 191.459 619.27 194.856 619.27 198.6C619.27 202.275 619.894 205.672 621.142 208.792C622.46 211.912 624.262 214.651 626.55 217.008C628.838 219.296 631.542 221.064 634.662 222.312C637.782 223.56 641.18 224.184 644.854 224.184Z" fill="#1C8EC2"/>
<path d="M729.697 236.04C719.713 236.04 711.879 233.232 706.193 227.616C700.577 222 697.769 213.888 697.769 203.28V162.2H711.289V202.76C711.289 210.248 712.884 215.691 716.073 219.088C719.332 222.485 723.908 224.184 729.801 224.184C735.695 224.184 740.236 222.485 743.425 219.088C746.615 215.691 748.209 210.248 748.209 202.76V162.2H761.521V203.28C761.521 213.888 758.678 222 752.993 227.616C747.377 233.232 739.612 236.04 729.697 236.04Z" fill="#1C8EC2"/>
<path d="M342.566 55.4068C342.566 35.4706 357.266 20.6792 374.523 20.6792L362.214 0.392947C341.637 5.39466 317 22.531 317 55.4068C317 95.2793 347.679 112 374.523 112C395.998 112 412.019 99.1379 417.346 92.7069L403.284 77.2724C403.284 77.2724 390.502 90.7775 374.523 90.7775C358.544 90.7775 342.566 75.343 342.566 55.4068Z" fill="#13212F"/>
<path d="M374.523 20.6792C388.328 20.6792 399.45 30.5401 403.284 35.4706L417.985 18.1068C412.951 13.2108 402.09 4.05998 387.306 0.392947L374.523 20.6792Z" fill="#13212F"/>
<path d="M526 54.1206H503.63V84.3465C503.63 84.3465 494.043 90.1344 481.899 90.1344C469.755 90.1344 449.303 79.2017 449.303 54.7637C449.303 30.3257 469.755 20.0361 484.456 20.0361L472.204 0C447.998 4.64062 423.737 22.8952 423.737 54.7637C423.737 92.0637 455.694 111.357 481.26 111.357C501.713 111.357 519.822 101.496 526 96.5655V54.1206Z" fill="#13212F"/>
<path d="M512.578 32.255L526 15.5343C522.406 11.2292 511.965 3.0506 496.599 0L484.456 20.0361C496.216 20.0361 508.104 28.182 512.578 32.255Z" fill="#13212F"/>
<path d="M323.339 235V162.2H334.466L363.355 210.441L391.771 162.2H402.898L403.003 235H390.211L390.115 186.767L366.186 226.68H360.155L336.234 187.396V235H323.339Z" fill="#1C8EC2"/>
<path fill-rule="evenodd" clip-rule="evenodd" d="M235.144 235L267.904 162.2H281.216L314.08 235H299.936L292.7 218.152H256.289L249.08 235H235.144ZM288.144 207.544H260.828L274.461 175.684L288.144 207.544Z" fill="#1C8EC2"/>
<path fill-rule="evenodd" clip-rule="evenodd" d="M166.323 235V162.2H200.435C209.171 162.2 215.827 163.933 220.403 167.4C224.979 170.797 227.267 175.373 227.267 181.128C227.267 185.011 226.366 188.339 224.563 191.112C222.871 193.65 220.629 195.669 217.837 197.169C218.719 197.458 219.575 197.796 220.403 198.184C223.662 199.64 226.227 201.789 228.099 204.632C230.04 207.475 231.011 211.011 231.011 215.24C231.011 221.48 228.619 226.333 223.835 229.8C219.051 233.267 211.944 235 202.515 235H166.323ZM201.683 224.392H179.843V203.384H201.683C206.744 203.384 210.627 204.251 213.331 205.984C216.035 207.648 217.387 210.283 217.387 213.888C217.387 217.563 216.035 220.232 213.331 221.896C210.627 223.56 206.744 224.392 201.683 224.392ZM209.795 190.384C207.299 192.048 203.694 192.88 198.979 192.88H179.843V172.808H198.979C203.694 172.808 207.299 173.64 209.795 175.304C212.36 176.968 213.643 179.499 213.643 182.896C213.643 186.224 212.36 188.72 209.795 190.384Z" fill="#1C8EC2"/>
<path fill-rule="evenodd" clip-rule="evenodd" d="M112.888 236.04C107.203 236.04 101.968 235.104 97.184 233.232C92.4 231.36 88.24 228.76 84.704 225.432C81.168 222.035 78.4293 218.083 76.488 213.576C74.5467 209 73.576 204.008 73.576 198.6C73.576 193.192 74.5467 188.235 76.488 183.728C78.4293 179.152 81.168 175.2 84.704 171.872C88.24 168.475 92.4 165.84 97.184 163.968C101.968 162.096 107.168 161.16 112.784 161.16C118.469 161.16 123.669 162.096 128.384 163.968C133.168 165.84 137.328 168.475 140.864 171.872C144.4 175.2 147.139 179.152 149.08 183.728C151.021 188.235 151.992 193.192 151.992 198.6C151.992 204.008 151.021 209 149.08 213.576C147.139 218.152 144.4 222.104 140.864 225.432C137.328 228.76 133.168 231.36 128.384 233.232C123.669 235.104 118.504 236.04 112.888 236.04ZM122.976 222.312C119.856 223.56 116.459 224.184 112.784 224.184C109.109 224.184 105.712 223.56 102.592 222.312C99.472 221.064 96.768 219.296 94.48 217.008C92.192 214.651 90.3893 211.912 89.072 208.792C87.824 205.672 87.2 202.275 87.2 198.6C87.2 194.856 87.824 191.459 89.072 188.408C90.3893 185.288 92.192 182.584 94.48 180.296C96.8373 177.939 99.5413 176.136 102.592 174.888C105.712 173.64 109.109 173.016 112.784 173.016C116.459 173.016 119.856 173.64 122.976 174.888C126.096 176.136 128.8 177.939 131.088 180.296C133.376 182.584 135.144 185.288 136.392 188.408C137.709 191.459 138.368 194.856 138.368 198.6C138.368 202.344 137.709 205.776 136.392 208.896C135.144 211.947 133.376 214.651 131.088 217.008C128.8 219.296 126.096 221.064 122.976 222.312Z" fill="#1C8EC2"/>
<path d="M18.2152 196.969C18.2152 183.572 28.1139 173.632 39.7342 173.632L31.4456 160C17.5898 163.361 1 174.877 1 196.969C1 223.764 21.6582 235 39.7342 235C54.1949 235 64.9831 226.357 68.5696 222.035L59.1013 211.663C59.1013 211.663 50.4937 220.739 39.7342 220.739C28.9747 220.739 18.2152 210.367 18.2152 196.969Z" fill="#1C8EC2"/>
<path d="M39.7342 173.632C49.0304 173.632 56.519 180.259 59.1013 183.572L69 171.904C65.6105 168.614 58.297 162.464 48.3418 160L39.7342 173.632Z" fill="#1C8EC2"/>
<path fill-rule="evenodd" clip-rule="evenodd" d="M534.776 235V162.2H564.728C571.176 162.2 576.688 163.24 581.264 165.32C585.909 167.4 589.48 170.381 591.976 174.264C594.472 178.147 595.72 182.757 595.72 188.096C595.72 193.435 594.472 198.045 591.976 201.928C589.48 205.741 585.909 208.688 581.264 210.768C580.939 210.911 580.61 211.048 580.276 211.181L596.968 235H582.408L567.576 213.716C566.648 213.761 565.699 213.784 564.728 213.784H548.296V235H534.776ZM577.52 198.808C574.539 201.373 570.067 202.656 564.104 202.656H548.296V173.64H564.104C570.067 173.64 574.539 174.888 577.52 177.384C580.571 179.88 582.096 183.451 582.096 188.096C582.096 192.672 580.571 196.243 577.52 198.808Z" fill="#1C8EC2"/>
<path fill-rule="evenodd" clip-rule="evenodd" d="M780.456 235V162.2H810.408C816.856 162.2 822.368 163.24 826.944 165.32C831.589 167.4 835.16 170.381 837.656 174.264C840.152 178.147 841.4 182.757 841.4 188.096C841.4 193.435 840.152 198.045 837.656 201.928C835.16 205.811 831.589 208.792 826.944 210.872C822.368 212.952 816.856 213.992 810.408 213.992H793.976V235H780.456ZM823.2 198.808C820.218 201.304 815.746 202.552 809.784 202.552H793.976V173.64H809.784C815.746 173.64 820.218 174.888 823.2 177.384C826.25 179.88 827.776 183.451 827.776 188.096C827.776 192.672 826.25 196.243 823.2 198.808Z" fill="#1C8EC2"/>
</g>
<defs>
<clipPath id="clip0_76_2843">
<rect width="843" height="236.04" fill="white"/>
</clipPath>
</defs>
</svg>
