<svg width="256" height="256" viewBox="0 0 256 256" fill="none" xmlns="http://www.w3.org/2000/svg">
<rect width="256" height="256" fill="white"/>
<path d="M48.5657 127.407C48.5657 107.471 63.266 92.6792 80.5229 92.6792L68.2138 72.3929C47.637 77.3947 23 94.531 23 127.407C23 167.279 53.6789 184 80.5229 184C101.998 184 118.019 171.138 123.346 164.707L109.284 149.272C109.284 149.272 96.5015 162.778 80.5229 162.778C64.5443 162.778 48.5657 147.343 48.5657 127.407Z" fill="#1C8EC2"/>
<path d="M80.5229 92.6792C94.3284 92.6792 105.45 102.54 109.284 107.471L123.985 90.1068C118.951 85.2108 108.09 76.06 93.3058 72.3929L80.5229 92.6792Z" fill="#1C8EC2"/>
<path d="M232 126.121H209.63V156.346C209.63 156.346 200.043 162.134 187.899 162.134C175.755 162.134 155.303 151.202 155.303 126.764C155.303 102.326 175.755 92.0361 190.456 92.0361L178.204 72C153.998 76.6406 129.737 94.8952 129.737 126.764C129.737 164.064 161.694 183.357 187.26 183.357C207.713 183.357 225.822 173.496 232 168.565V126.121Z" fill="#1C8EC2"/>
<path d="M218.578 104.255L232 87.5343C228.406 83.2292 217.965 75.0506 202.599 72L190.456 92.0361C202.216 92.0361 214.104 100.182 218.578 104.255Z" fill="#1C8EC2"/>
</svg>
