<svg width="843" height="290" viewBox="0 0 843 290" fill="none" xmlns="http://www.w3.org/2000/svg">
<g clip-path="url(#clip0_73_2803)">
<path d="M0 277H292V282H0V277Z" fill="#13212F"/>
<path d="M516 196.451H500.906V216.808C500.906 216.808 494.437 220.706 486.244 220.706C478.05 220.706 464.25 213.343 464.25 196.884C464.25 180.425 478.05 173.494 487.969 173.494L479.702 160C463.37 163.126 447 175.42 447 196.884C447 222.006 468.562 235 485.812 235C499.613 235 511.831 228.359 516 225.038V196.451Z" fill="#1C8EC2"/>
<path d="M506.944 181.724L516 170.463C513.575 167.563 506.53 162.055 496.163 160L487.969 173.494C495.904 173.494 503.925 178.981 506.944 181.724Z" fill="#1C8EC2"/>
<path d="M644.958 236.04C639.273 236.04 634.038 235.104 629.254 233.232C624.47 231.36 620.31 228.76 616.774 225.432C613.238 222.035 610.5 218.083 608.558 213.576C606.617 209 605.646 204.008 605.646 198.6C605.646 193.192 606.617 188.235 608.558 183.728C610.5 179.152 613.238 175.2 616.774 171.872C620.31 168.475 624.47 165.84 629.254 163.968C634.038 162.096 639.238 161.16 644.854 161.16C650.54 161.16 655.74 162.096 660.454 163.968C665.238 165.84 669.398 168.475 672.934 171.872C676.47 175.2 679.209 179.152 681.15 183.728C683.092 188.235 684.062 193.192 684.062 198.6C684.062 204.008 683.092 209 681.15 213.576C679.209 218.152 676.47 222.104 672.934 225.432C669.398 228.76 665.238 231.36 660.454 233.232C655.74 235.104 650.574 236.04 644.958 236.04ZM644.854 224.184C648.529 224.184 651.926 223.56 655.046 222.312C658.166 221.064 660.87 219.296 663.158 217.008C665.446 214.651 667.214 211.947 668.462 208.896C669.78 205.776 670.438 202.344 670.438 198.6C670.438 194.856 669.78 191.459 668.462 188.408C667.214 185.288 665.446 182.584 663.158 180.296C660.87 177.939 658.166 176.136 655.046 174.888C651.926 173.64 648.529 173.016 644.854 173.016C641.18 173.016 637.782 173.64 634.662 174.888C631.612 176.136 628.908 177.939 626.55 180.296C624.262 182.584 622.46 185.288 621.142 188.408C619.894 191.459 619.27 194.856 619.27 198.6C619.27 202.275 619.894 205.672 621.142 208.792C622.46 211.912 624.262 214.651 626.55 217.008C628.838 219.296 631.542 221.064 634.662 222.312C637.782 223.56 641.18 224.184 644.854 224.184Z" fill="#1C8EC2"/>
<path d="M729.697 236.04C719.713 236.04 711.879 233.232 706.193 227.616C700.577 222 697.769 213.888 697.769 203.28V162.2H711.289V202.76C711.289 210.248 712.884 215.691 716.073 219.088C719.332 222.485 723.908 224.184 729.801 224.184C735.695 224.184 740.236 222.485 743.425 219.088C746.615 215.691 748.209 210.248 748.209 202.76V162.2H761.521V203.28C761.521 213.888 758.678 222 752.993 227.616C747.377 233.232 739.612 236.04 729.697 236.04Z" fill="#1C8EC2"/>
<path d="M551 277H843V282H551V277Z" fill="#13212F"/>
<path d="M317.978 289.336C315.738 289.336 313.596 289 311.552 288.328C309.508 287.628 307.898 286.732 306.722 285.64L308.276 282.364C309.396 283.344 310.824 284.156 312.56 284.8C314.296 285.444 316.102 285.766 317.978 285.766C319.686 285.766 321.072 285.57 322.136 285.178C323.2 284.786 323.984 284.254 324.488 283.582C324.992 282.882 325.244 282.098 325.244 281.23C325.244 280.222 324.908 279.41 324.236 278.794C323.592 278.178 322.738 277.688 321.674 277.324C320.638 276.932 319.49 276.596 318.23 276.316C316.97 276.036 315.696 275.714 314.408 275.35C313.148 274.958 311.986 274.468 310.922 273.88C309.886 273.292 309.046 272.508 308.402 271.528C307.758 270.52 307.436 269.232 307.436 267.664C307.436 266.152 307.828 264.766 308.612 263.506C309.424 262.218 310.656 261.196 312.308 260.44C313.988 259.656 316.116 259.264 318.692 259.264C320.4 259.264 322.094 259.488 323.774 259.936C325.454 260.384 326.91 261.028 328.142 261.868L326.756 265.228C325.496 264.388 324.166 263.786 322.766 263.422C321.366 263.03 320.008 262.834 318.692 262.834C317.04 262.834 315.682 263.044 314.618 263.464C313.554 263.884 312.77 264.444 312.266 265.144C311.79 265.844 311.552 266.628 311.552 267.496C311.552 268.532 311.874 269.358 312.518 269.974C313.19 270.59 314.044 271.08 315.08 271.444C316.144 271.808 317.306 272.144 318.566 272.452C319.826 272.732 321.086 273.054 322.346 273.418C323.634 273.782 324.796 274.258 325.832 274.846C326.896 275.434 327.75 276.218 328.394 277.198C329.038 278.178 329.36 279.438 329.36 280.978C329.36 282.462 328.954 283.848 328.142 285.136C327.33 286.396 326.07 287.418 324.362 288.202C322.682 288.958 320.554 289.336 317.978 289.336Z" fill="#13212F"/>
<path d="M335.076 289V259.6H339.276V289H335.076Z" fill="#13212F"/>
<path d="M394.468 289.336C392.228 289.336 390.156 288.972 388.252 288.244C386.376 287.488 384.738 286.438 383.338 285.094C381.966 283.722 380.888 282.126 380.104 280.306C379.32 278.486 378.928 276.484 378.928 274.3C378.928 272.116 379.32 270.114 380.104 268.294C380.888 266.474 381.98 264.892 383.38 263.548C384.78 262.176 386.418 261.126 388.294 260.398C390.198 259.642 392.27 259.264 394.51 259.264C396.778 259.264 398.864 259.656 400.768 260.44C402.7 261.196 404.338 262.33 405.682 263.842L402.952 266.488C401.832 265.312 400.572 264.444 399.172 263.884C397.772 263.296 396.274 263.002 394.678 263.002C393.026 263.002 391.486 263.282 390.058 263.842C388.658 264.402 387.44 265.186 386.404 266.194C385.368 267.202 384.556 268.406 383.968 269.806C383.408 271.178 383.128 272.676 383.128 274.3C383.128 275.924 383.408 277.436 383.968 278.836C384.556 280.208 385.368 281.398 386.404 282.406C387.44 283.414 388.658 284.198 390.058 284.758C391.486 285.318 393.026 285.598 394.678 285.598C396.274 285.598 397.772 285.318 399.172 284.758C400.572 284.17 401.832 283.274 402.952 282.07L405.682 284.716C404.338 286.228 402.7 287.376 400.768 288.16C398.864 288.944 396.764 289.336 394.468 289.336Z" fill="#13212F"/>
<path d="M342.566 55.4069C342.566 35.4707 357.266 20.6793 374.523 20.6793L362.214 0.393066C341.637 5.39478 317 22.5311 317 55.4069C317 95.2794 347.679 112 374.523 112C395.998 112 412.019 99.138 417.346 92.707L403.284 77.2725C403.284 77.2725 390.502 90.7776 374.523 90.7776C358.544 90.7776 342.566 75.3431 342.566 55.4069Z" fill="#13212F"/>
<path d="M374.523 20.6793C388.328 20.6793 399.45 30.5402 403.284 35.4707L417.985 18.1069C412.951 13.2109 402.09 4.0601 387.306 0.393066L374.523 20.6793Z" fill="#13212F"/>
<path d="M526 54.1206H503.63V84.3465C503.63 84.3465 494.043 90.1344 481.899 90.1344C469.755 90.1344 449.303 79.2017 449.303 54.7637C449.303 30.3257 469.755 20.0361 484.456 20.0361L472.204 0C447.998 4.64062 423.737 22.8952 423.737 54.7637C423.737 92.0637 455.694 111.357 481.26 111.357C501.713 111.357 519.822 101.496 526 96.5655V54.1206Z" fill="#13212F"/>
<path d="M512.578 32.255L526 15.5343C522.406 11.2292 511.965 3.0506 496.599 0L484.456 20.0361C496.216 20.0361 508.104 28.182 512.578 32.255Z" fill="#13212F"/>
<path d="M347.658 289V259.6H351.102L368.742 281.507V259.6H372.942V289H369.498L351.858 267.093V289H347.658Z" fill="#13212F"/>
<path d="M430.196 272.284V275.854H415.454V285.346H432.59V289H411.254V259.6H432.002V263.254H415.454V272.284H430.196Z" fill="#13212F"/>
<path d="M444.336 263.254V259.6H455.13V289H450.972V263.254H444.336Z" fill="#13212F"/>
<path fill-rule="evenodd" clip-rule="evenodd" d="M471.095 259.264C473.755 259.264 475.995 259.838 477.815 260.986C479.663 262.134 481.063 263.8 482.015 265.984C482.967 268.14 483.443 270.786 483.443 273.922C483.443 277.254 482.855 280.068 481.679 282.364C480.503 284.66 478.879 286.396 476.807 287.572C474.735 288.748 472.313 289.336 469.541 289.336C468.169 289.336 466.839 289.196 465.551 288.916C464.291 288.636 463.185 288.202 462.233 287.614L463.829 284.338C464.613 284.842 465.481 285.206 466.433 285.43C467.413 285.626 468.435 285.724 469.499 285.724C472.467 285.724 474.833 284.8 476.597 282.952C478.361 281.076 479.243 278.304 479.243 274.636C479.243 274.325 479.235 273.982 479.22 273.609C478.925 274.056 478.582 274.468 478.193 274.846C477.297 275.714 476.205 276.372 474.917 276.82C473.657 277.24 472.271 277.45 470.759 277.45C468.827 277.45 467.105 277.086 465.593 276.358C464.081 275.63 462.891 274.608 462.023 273.292C461.155 271.948 460.721 270.366 460.721 268.546C460.721 266.642 461.169 265.004 462.065 263.632C462.989 262.232 464.235 261.154 465.803 260.398C467.399 259.642 469.163 259.264 471.095 259.264ZM467.903 263.38C468.883 262.904 470.003 262.666 471.263 262.666C472.803 262.666 474.091 262.932 475.127 263.464C476.163 263.996 476.947 264.682 477.479 265.522C478.011 266.362 478.277 267.3 478.277 268.336C478.277 269.4 477.983 270.366 477.395 271.234C476.835 272.102 476.037 272.788 475.001 273.292C473.993 273.796 472.817 274.048 471.473 274.048C469.429 274.048 467.805 273.544 466.601 272.536C465.397 271.5 464.795 270.114 464.795 268.378C464.795 267.202 465.061 266.194 465.593 265.354C466.153 264.514 466.923 263.856 467.903 263.38Z" fill="#13212F"/>
<path fill-rule="evenodd" clip-rule="evenodd" d="M497.017 259.264C499.677 259.264 501.917 259.838 503.737 260.986C505.585 262.134 506.985 263.8 507.937 265.984C508.889 268.14 509.365 270.786 509.365 273.922C509.365 277.254 508.777 280.068 507.601 282.364C506.425 284.66 504.801 286.396 502.729 287.572C500.657 288.748 498.235 289.336 495.463 289.336C494.091 289.336 492.761 289.196 491.473 288.916C490.213 288.636 489.107 288.202 488.155 287.614L489.751 284.338C490.535 284.842 491.403 285.206 492.355 285.43C493.335 285.626 494.357 285.724 495.421 285.724C498.389 285.724 500.755 284.8 502.519 282.952C504.283 281.076 505.165 278.304 505.165 274.636C505.165 274.325 505.157 273.982 505.141 273.609C504.847 274.056 504.504 274.468 504.115 274.846C503.219 275.714 502.127 276.372 500.839 276.82C499.579 277.24 498.193 277.45 496.681 277.45C494.749 277.45 493.027 277.086 491.515 276.358C490.003 275.63 488.813 274.608 487.945 273.292C487.077 271.948 486.643 270.366 486.643 268.546C486.643 266.642 487.091 265.004 487.987 263.632C488.911 262.232 490.157 261.154 491.725 260.398C493.321 259.642 495.085 259.264 497.017 259.264ZM493.825 263.38C494.805 262.904 495.925 262.666 497.185 262.666C498.725 262.666 500.013 262.932 501.049 263.464C502.085 263.996 502.869 264.682 503.401 265.522C503.933 266.362 504.199 267.3 504.199 268.336C504.199 269.4 503.905 270.366 503.317 271.234C502.757 272.102 501.959 272.788 500.923 273.292C499.915 273.796 498.739 274.048 497.395 274.048C495.351 274.048 493.727 273.544 492.523 272.536C491.319 271.5 490.717 270.114 490.717 268.378C490.717 267.202 490.983 266.194 491.515 265.354C492.075 264.514 492.845 263.856 493.825 263.38Z" fill="#13212F"/>
<path d="M512.985 281.776V278.836L528.021 259.6H532.557L518.168 278.164H529.449V271.78H533.397V278.164H538.983V281.776H533.397V289H529.323V281.776H512.985Z" fill="#13212F"/>
<path d="M323.339 235V162.2H334.466L363.355 210.441L391.771 162.2H402.898L403.003 235H390.211L390.115 186.767L366.186 226.68H360.155L336.234 187.396V235H323.339Z" fill="#1C8EC2"/>
<path fill-rule="evenodd" clip-rule="evenodd" d="M235.144 235L267.904 162.2H281.216L314.08 235H299.936L292.7 218.152H256.289L249.08 235H235.144ZM288.144 207.544H260.828L274.461 175.684L288.144 207.544Z" fill="#1C8EC2"/>
<path fill-rule="evenodd" clip-rule="evenodd" d="M166.323 235V162.2H200.435C209.171 162.2 215.827 163.933 220.403 167.4C224.979 170.797 227.267 175.373 227.267 181.128C227.267 185.011 226.366 188.339 224.563 191.112C222.871 193.65 220.629 195.669 217.837 197.169C218.719 197.458 219.575 197.796 220.403 198.184C223.662 199.64 226.227 201.789 228.099 204.632C230.04 207.475 231.011 211.011 231.011 215.24C231.011 221.48 228.619 226.333 223.835 229.8C219.051 233.267 211.944 235 202.515 235H166.323ZM201.683 224.392H179.843V203.384H201.683C206.744 203.384 210.627 204.251 213.331 205.984C216.035 207.648 217.387 210.283 217.387 213.888C217.387 217.563 216.035 220.232 213.331 221.896C210.627 223.56 206.744 224.392 201.683 224.392ZM209.795 190.384C207.299 192.048 203.694 192.88 198.979 192.88H179.843V172.808H198.979C203.694 172.808 207.299 173.64 209.795 175.304C212.36 176.968 213.643 179.499 213.643 182.896C213.643 186.224 212.36 188.72 209.795 190.384Z" fill="#1C8EC2"/>
<path fill-rule="evenodd" clip-rule="evenodd" d="M112.888 236.04C107.203 236.04 101.968 235.104 97.1842 233.232C92.4002 231.36 88.2402 228.76 84.7042 225.432C81.1682 222.035 78.4295 218.083 76.4882 213.576C74.5469 209 73.5762 204.008 73.5762 198.6C73.5762 193.192 74.5469 188.235 76.4882 183.728C78.4295 179.152 81.1682 175.2 84.7042 171.872C88.2402 168.475 92.4002 165.84 97.1842 163.968C101.968 162.096 107.168 161.16 112.784 161.16C118.469 161.16 123.669 162.096 128.384 163.968C133.168 165.84 137.328 168.475 140.864 171.872C144.4 175.2 147.139 179.152 149.08 183.728C151.021 188.235 151.992 193.192 151.992 198.6C151.992 204.008 151.021 209 149.08 213.576C147.139 218.152 144.4 222.104 140.864 225.432C137.328 228.76 133.168 231.36 128.384 233.232C123.669 235.104 118.504 236.04 112.888 236.04ZM122.976 222.312C119.856 223.56 116.459 224.184 112.784 224.184C109.109 224.184 105.712 223.56 102.592 222.312C99.4722 221.064 96.7682 219.296 94.4802 217.008C92.1922 214.651 90.3895 211.912 89.0722 208.792C87.8242 205.672 87.2002 202.275 87.2002 198.6C87.2002 194.856 87.8242 191.459 89.0722 188.408C90.3895 185.288 92.1922 182.584 94.4802 180.296C96.8375 177.939 99.5415 176.136 102.592 174.888C105.712 173.64 109.109 173.016 112.784 173.016C116.459 173.016 119.856 173.64 122.976 174.888C126.096 176.136 128.8 177.939 131.088 180.296C133.376 182.584 135.144 185.288 136.392 188.408C137.709 191.459 138.368 194.856 138.368 198.6C138.368 202.344 137.709 205.776 136.392 208.896C135.144 211.947 133.376 214.651 131.088 217.008C128.8 219.296 126.096 221.064 122.976 222.312Z" fill="#1C8EC2"/>
<path d="M18.2152 196.969C18.2152 183.572 28.1139 173.632 39.7342 173.632L31.4456 160C17.5898 163.361 1 174.877 1 196.969C1 223.764 21.6582 235 39.7342 235C54.1949 235 64.9831 226.357 68.5696 222.035L59.1013 211.663C59.1013 211.663 50.4937 220.739 39.7342 220.739C28.9747 220.739 18.2152 210.367 18.2152 196.969Z" fill="#1C8EC2"/>
<path d="M39.7344 173.632C49.0306 173.632 56.5192 180.259 59.1015 183.572L69.0002 171.904C65.6107 168.614 58.2972 162.464 48.342 160L39.7344 173.632Z" fill="#1C8EC2"/>
<path fill-rule="evenodd" clip-rule="evenodd" d="M534.776 235V162.2H564.728C571.176 162.2 576.688 163.24 581.264 165.32C585.909 167.4 589.48 170.381 591.976 174.264C594.472 178.147 595.72 182.757 595.72 188.096C595.72 193.435 594.472 198.045 591.976 201.928C589.48 205.741 585.909 208.688 581.264 210.768C580.939 210.911 580.61 211.048 580.276 211.181L596.968 235H582.408L567.576 213.716C566.648 213.761 565.699 213.784 564.728 213.784H548.296V235H534.776ZM577.52 198.808C574.539 201.373 570.067 202.656 564.104 202.656H548.296V173.64H564.104C570.067 173.64 574.539 174.888 577.52 177.384C580.571 179.88 582.096 183.451 582.096 188.096C582.096 192.672 580.571 196.243 577.52 198.808Z" fill="#1C8EC2"/>
<path fill-rule="evenodd" clip-rule="evenodd" d="M780.456 235V162.2H810.408C816.856 162.2 822.368 163.24 826.944 165.32C831.589 167.4 835.16 170.381 837.656 174.264C840.152 178.147 841.4 182.757 841.4 188.096C841.4 193.435 840.152 198.045 837.656 201.928C835.16 205.811 831.589 208.792 826.944 210.872C822.368 212.952 816.856 213.992 810.408 213.992H793.976V235H780.456ZM823.2 198.808C820.218 201.304 815.746 202.552 809.784 202.552H793.976V173.64H809.784C815.746 173.64 820.218 174.888 823.2 177.384C826.25 179.88 827.776 183.451 827.776 188.096C827.776 192.672 826.25 196.243 823.2 198.808Z" fill="#1C8EC2"/>
</g>
<defs>
<clipPath id="clip0_73_2803">
<rect width="843" height="290" fill="white"/>
</clipPath>
</defs>
</svg>
