<svg width="209" height="112" viewBox="0 0 209 112" fill="none" xmlns="http://www.w3.org/2000/svg">
<g clip-path="url(#clip0_73_2836)">
<path d="M25.5657 55.4068C25.5657 35.4706 40.266 20.6792 57.5229 20.6792L45.2138 0.392947C24.637 5.39466 0 22.531 0 55.4068C0 95.2793 30.6789 112 57.5229 112C78.9981 112 95.0194 99.1379 100.346 92.7069L86.2844 77.2724C86.2844 77.2724 73.5015 90.7775 57.5229 90.7775C41.5443 90.7775 25.5657 75.343 25.5657 55.4068Z" fill="#14202E"/>
<path d="M57.5229 20.6792C71.3284 20.6792 82.4495 30.5401 86.2844 35.4706L100.985 18.1068C95.9511 13.2108 85.09 4.05998 70.3058 0.392947L57.5229 20.6792Z" fill="#14202E"/>
<path d="M209 54.1206H186.63V84.3465C186.63 84.3465 177.043 90.1344 164.899 90.1344C152.755 90.1344 132.303 79.2017 132.303 54.7637C132.303 30.3257 152.755 20.0361 167.456 20.0361L155.204 0C130.998 4.64062 106.737 22.8952 106.737 54.7637C106.737 92.0637 138.694 111.357 164.26 111.357C184.713 111.357 202.822 101.496 209 96.5655V54.1206Z" fill="#14202E"/>
<path d="M195.578 32.255L209 15.5343C205.406 11.2292 194.965 3.0506 179.599 0L167.456 20.0361C179.216 20.0361 191.104 28.182 195.578 32.255Z" fill="#14202E"/>
</g>
<defs>
<clipPath id="clip0_73_2836">
<rect width="209" height="112" fill="white"/>
</clipPath>
</defs>
</svg>
