<svg width="843" height="298" viewBox="0 0 843 298" fill="none" xmlns="http://www.w3.org/2000/svg">
<path d="M0 281H292V286H0V281Z" fill="white"/>
<path d="M516 200.451H500.906V220.808C500.906 220.808 494.437 224.706 486.244 224.706C478.05 224.706 464.25 217.343 464.25 200.884C464.25 184.425 478.05 177.494 487.969 177.494L479.702 164C463.37 167.126 447 179.42 447 200.884C447 226.006 468.562 239 485.812 239C499.613 239 511.831 232.359 516 229.038V200.451Z" fill="white"/>
<path d="M506.944 185.724L516 174.463C513.575 171.563 506.53 166.055 496.163 164L487.969 177.494C495.904 177.494 503.925 182.981 506.944 185.724Z" fill="white"/>
<path d="M644.958 240.04C639.273 240.04 634.038 239.104 629.254 237.232C624.47 235.36 620.31 232.76 616.774 229.432C613.238 226.035 610.5 222.083 608.558 217.576C606.617 213 605.646 208.008 605.646 202.6C605.646 197.192 606.617 192.235 608.558 187.728C610.5 183.152 613.238 179.2 616.774 175.872C620.31 172.475 624.47 169.84 629.254 167.968C634.038 166.096 639.238 165.16 644.854 165.16C650.54 165.16 655.74 166.096 660.454 167.968C665.238 169.84 669.398 172.475 672.934 175.872C676.47 179.2 679.209 183.152 681.15 187.728C683.092 192.235 684.062 197.192 684.062 202.6C684.062 208.008 683.092 213 681.15 217.576C679.209 222.152 676.47 226.104 672.934 229.432C669.398 232.76 665.238 235.36 660.454 237.232C655.74 239.104 650.574 240.04 644.958 240.04ZM644.854 228.184C648.529 228.184 651.926 227.56 655.046 226.312C658.166 225.064 660.87 223.296 663.158 221.008C665.446 218.651 667.214 215.947 668.462 212.896C669.78 209.776 670.438 206.344 670.438 202.6C670.438 198.856 669.78 195.459 668.462 192.408C667.214 189.288 665.446 186.584 663.158 184.296C660.87 181.939 658.166 180.136 655.046 178.888C651.926 177.64 648.529 177.016 644.854 177.016C641.18 177.016 637.782 177.64 634.662 178.888C631.612 180.136 628.908 181.939 626.55 184.296C624.262 186.584 622.46 189.288 621.142 192.408C619.894 195.459 619.27 198.856 619.27 202.6C619.27 206.275 619.894 209.672 621.142 212.792C622.46 215.912 624.262 218.651 626.55 221.008C628.838 223.296 631.542 225.064 634.662 226.312C637.782 227.56 641.18 228.184 644.854 228.184Z" fill="white"/>
<path d="M729.697 240.04C719.713 240.04 711.879 237.232 706.193 231.616C700.577 226 697.769 217.888 697.769 207.28V166.2H711.289V206.76C711.289 214.248 712.884 219.691 716.073 223.088C719.332 226.485 723.908 228.184 729.801 228.184C735.695 228.184 740.236 226.485 743.425 223.088C746.615 219.691 748.209 214.248 748.209 206.76V166.2H761.521V207.28C761.521 217.888 758.678 226 752.993 231.616C747.377 237.232 739.612 240.04 729.697 240.04Z" fill="white"/>
<path d="M551 281H843V286H551V281Z" fill="white"/>
<path d="M317.978 293.336C315.738 293.336 313.596 293 311.552 292.328C309.508 291.628 307.898 290.732 306.722 289.64L308.276 286.364C309.396 287.344 310.824 288.156 312.56 288.8C314.296 289.444 316.102 289.766 317.978 289.766C319.686 289.766 321.072 289.57 322.136 289.178C323.2 288.786 323.984 288.254 324.488 287.582C324.992 286.882 325.244 286.098 325.244 285.23C325.244 284.222 324.908 283.41 324.236 282.794C323.592 282.178 322.738 281.688 321.674 281.324C320.638 280.932 319.49 280.596 318.23 280.316C316.97 280.036 315.696 279.714 314.408 279.35C313.148 278.958 311.986 278.468 310.922 277.88C309.886 277.292 309.046 276.508 308.402 275.528C307.758 274.52 307.436 273.232 307.436 271.664C307.436 270.152 307.828 268.766 308.612 267.506C309.424 266.218 310.656 265.196 312.308 264.44C313.988 263.656 316.116 263.264 318.692 263.264C320.4 263.264 322.094 263.488 323.774 263.936C325.454 264.384 326.91 265.028 328.142 265.868L326.756 269.228C325.496 268.388 324.166 267.786 322.766 267.422C321.366 267.03 320.008 266.834 318.692 266.834C317.04 266.834 315.682 267.044 314.618 267.464C313.554 267.884 312.77 268.444 312.266 269.144C311.79 269.844 311.552 270.628 311.552 271.496C311.552 272.532 311.874 273.358 312.518 273.974C313.19 274.59 314.044 275.08 315.08 275.444C316.144 275.808 317.306 276.144 318.566 276.452C319.826 276.732 321.086 277.054 322.346 277.418C323.634 277.782 324.796 278.258 325.832 278.846C326.896 279.434 327.75 280.218 328.394 281.198C329.038 282.178 329.36 283.438 329.36 284.978C329.36 286.462 328.954 287.848 328.142 289.136C327.33 290.396 326.07 291.418 324.362 292.202C322.682 292.958 320.554 293.336 317.978 293.336Z" fill="white"/>
<path d="M335.076 293V263.6H339.276V293H335.076Z" fill="white"/>
<path d="M394.468 293.336C392.228 293.336 390.156 292.972 388.252 292.244C386.376 291.488 384.738 290.438 383.338 289.094C381.966 287.722 380.888 286.126 380.104 284.306C379.32 282.486 378.928 280.484 378.928 278.3C378.928 276.116 379.32 274.114 380.104 272.294C380.888 270.474 381.98 268.892 383.38 267.548C384.78 266.176 386.418 265.126 388.294 264.398C390.198 263.642 392.27 263.264 394.51 263.264C396.778 263.264 398.864 263.656 400.768 264.44C402.7 265.196 404.338 266.33 405.682 267.842L402.952 270.488C401.832 269.312 400.572 268.444 399.172 267.884C397.772 267.296 396.274 267.002 394.678 267.002C393.026 267.002 391.486 267.282 390.058 267.842C388.658 268.402 387.44 269.186 386.404 270.194C385.368 271.202 384.556 272.406 383.968 273.806C383.408 275.178 383.128 276.676 383.128 278.3C383.128 279.924 383.408 281.436 383.968 282.836C384.556 284.208 385.368 285.398 386.404 286.406C387.44 287.414 388.658 288.198 390.058 288.758C391.486 289.318 393.026 289.598 394.678 289.598C396.274 289.598 397.772 289.318 399.172 288.758C400.572 288.17 401.832 287.274 402.952 286.07L405.682 288.716C404.338 290.228 402.7 291.376 400.768 292.16C398.864 292.944 396.764 293.336 394.468 293.336Z" fill="white"/>
<path d="M342.566 59.4068C342.566 39.4706 357.266 24.6792 374.523 24.6792L362.214 4.39295C341.637 9.39466 317 26.531 317 59.4068C317 99.2793 347.679 116 374.523 116C395.998 116 412.019 103.138 417.346 96.7069L403.284 81.2724C403.284 81.2724 390.502 94.7775 374.523 94.7775C358.544 94.7775 342.566 79.343 342.566 59.4068Z" fill="white"/>
<path d="M374.523 24.6792C388.328 24.6792 399.45 34.5401 403.284 39.4706L417.985 22.1068C412.951 17.2108 402.09 8.05998 387.306 4.39295L374.523 24.6792Z" fill="white"/>
<path d="M526 58.1206H503.63V88.3465C503.63 88.3465 494.043 94.1344 481.899 94.1344C469.755 94.1344 449.303 83.2017 449.303 58.7637C449.303 34.3257 469.755 24.0361 484.456 24.0361L472.204 4C447.998 8.64062 423.737 26.8952 423.737 58.7637C423.737 96.0637 455.694 115.357 481.26 115.357C501.713 115.357 519.822 105.496 526 100.565V58.1206Z" fill="white"/>
<path d="M512.578 36.255L526 19.5343C522.406 15.2292 511.965 7.0506 496.599 4L484.456 24.0361C496.216 24.0361 508.104 32.182 512.578 36.255Z" fill="white"/>
<path d="M347.658 293V263.6H351.102L368.742 285.507V263.6H372.942V293H369.498L351.858 271.093V293H347.658Z" fill="white"/>
<path d="M430.196 276.284V279.854H415.454V289.346H432.59V293H411.254V263.6H432.002V267.254H415.454V276.284H430.196Z" fill="white"/>
<path d="M444.336 267.254V263.6H455.13V293H450.972V267.254H444.336Z" fill="white"/>
<path fill-rule="evenodd" clip-rule="evenodd" d="M471.095 263.264C473.755 263.264 475.995 263.838 477.815 264.986C479.663 266.134 481.063 267.8 482.015 269.984C482.967 272.14 483.443 274.786 483.443 277.922C483.443 281.254 482.855 284.068 481.679 286.364C480.503 288.66 478.879 290.396 476.807 291.572C474.735 292.748 472.313 293.336 469.541 293.336C468.169 293.336 466.839 293.196 465.551 292.916C464.291 292.636 463.185 292.202 462.233 291.614L463.829 288.338C464.613 288.842 465.481 289.206 466.433 289.43C467.413 289.626 468.435 289.724 469.499 289.724C472.467 289.724 474.833 288.8 476.597 286.952C478.361 285.076 479.243 282.304 479.243 278.636C479.243 278.325 479.235 277.982 479.22 277.609C478.925 278.056 478.582 278.468 478.193 278.846C477.297 279.714 476.205 280.372 474.917 280.82C473.657 281.24 472.271 281.45 470.759 281.45C468.827 281.45 467.105 281.086 465.593 280.358C464.081 279.63 462.891 278.608 462.023 277.292C461.155 275.948 460.721 274.366 460.721 272.546C460.721 270.642 461.169 269.004 462.065 267.632C462.989 266.232 464.235 265.154 465.803 264.398C467.399 263.642 469.163 263.264 471.095 263.264ZM467.903 267.38C468.883 266.904 470.003 266.666 471.263 266.666C472.803 266.666 474.091 266.932 475.127 267.464C476.163 267.996 476.947 268.682 477.479 269.522C478.011 270.362 478.277 271.3 478.277 272.336C478.277 273.4 477.983 274.366 477.395 275.234C476.835 276.102 476.037 276.788 475.001 277.292C473.993 277.796 472.817 278.048 471.473 278.048C469.429 278.048 467.805 277.544 466.601 276.536C465.397 275.5 464.795 274.114 464.795 272.378C464.795 271.202 465.061 270.194 465.593 269.354C466.153 268.514 466.923 267.856 467.903 267.38Z" fill="white"/>
<path fill-rule="evenodd" clip-rule="evenodd" d="M497.017 263.264C499.677 263.264 501.917 263.838 503.737 264.986C505.585 266.134 506.985 267.8 507.937 269.984C508.889 272.14 509.365 274.786 509.365 277.922C509.365 281.254 508.777 284.068 507.601 286.364C506.425 288.66 504.801 290.396 502.729 291.572C500.657 292.748 498.235 293.336 495.463 293.336C494.091 293.336 492.761 293.196 491.473 292.916C490.213 292.636 489.107 292.202 488.155 291.614L489.751 288.338C490.535 288.842 491.403 289.206 492.355 289.43C493.335 289.626 494.357 289.724 495.421 289.724C498.389 289.724 500.755 288.8 502.519 286.952C504.283 285.076 505.165 282.304 505.165 278.636C505.165 278.325 505.157 277.982 505.141 277.609C504.847 278.056 504.504 278.468 504.115 278.846C503.219 279.714 502.127 280.372 500.839 280.82C499.579 281.24 498.193 281.45 496.681 281.45C494.749 281.45 493.027 281.086 491.515 280.358C490.003 279.63 488.813 278.608 487.945 277.292C487.077 275.948 486.643 274.366 486.643 272.546C486.643 270.642 487.091 269.004 487.987 267.632C488.911 266.232 490.157 265.154 491.725 264.398C493.321 263.642 495.085 263.264 497.017 263.264ZM493.825 267.38C494.805 266.904 495.925 266.666 497.185 266.666C498.725 266.666 500.013 266.932 501.049 267.464C502.085 267.996 502.869 268.682 503.401 269.522C503.933 270.362 504.199 271.3 504.199 272.336C504.199 273.4 503.905 274.366 503.317 275.234C502.757 276.102 501.959 276.788 500.923 277.292C499.915 277.796 498.739 278.048 497.395 278.048C495.351 278.048 493.727 277.544 492.523 276.536C491.319 275.5 490.717 274.114 490.717 272.378C490.717 271.202 490.983 270.194 491.515 269.354C492.075 268.514 492.845 267.856 493.825 267.38Z" fill="white"/>
<path d="M512.985 285.776V282.836L528.021 263.6H532.557L518.168 282.164H529.449V275.78H533.397V282.164H538.983V285.776H533.397V293H529.323V285.776H512.985Z" fill="white"/>
<path d="M323.339 239V166.2H334.466L363.355 214.441L391.771 166.2H402.898L403.003 239H390.211L390.115 190.767L366.186 230.68H360.155L336.234 191.396V239H323.339Z" fill="white"/>
<path fill-rule="evenodd" clip-rule="evenodd" d="M235.144 239L267.904 166.2H281.216L314.08 239H299.936L292.7 222.152H256.289L249.08 239H235.144ZM288.144 211.544H260.828L274.461 179.684L288.144 211.544Z" fill="white"/>
<path fill-rule="evenodd" clip-rule="evenodd" d="M166.323 239V166.2H200.435C209.171 166.2 215.827 167.933 220.403 171.4C224.979 174.797 227.267 179.373 227.267 185.128C227.267 189.011 226.366 192.339 224.563 195.112C222.871 197.65 220.629 199.669 217.837 201.169C218.719 201.458 219.575 201.796 220.403 202.184C223.662 203.64 226.227 205.789 228.099 208.632C230.04 211.475 231.011 215.011 231.011 219.24C231.011 225.48 228.619 230.333 223.835 233.8C219.051 237.267 211.944 239 202.515 239H166.323ZM201.683 228.392H179.843V207.384H201.683C206.744 207.384 210.627 208.251 213.331 209.984C216.035 211.648 217.387 214.283 217.387 217.888C217.387 221.563 216.035 224.232 213.331 225.896C210.627 227.56 206.744 228.392 201.683 228.392ZM209.795 194.384C207.299 196.048 203.694 196.88 198.979 196.88H179.843V176.808H198.979C203.694 176.808 207.299 177.64 209.795 179.304C212.36 180.968 213.643 183.499 213.643 186.896C213.643 190.224 212.36 192.72 209.795 194.384Z" fill="white"/>
<path fill-rule="evenodd" clip-rule="evenodd" d="M112.888 240.04C107.203 240.04 101.968 239.104 97.184 237.232C92.4 235.36 88.24 232.76 84.704 229.432C81.168 226.035 78.4293 222.083 76.488 217.576C74.5467 213 73.576 208.008 73.576 202.6C73.576 197.192 74.5467 192.235 76.488 187.728C78.4293 183.152 81.168 179.2 84.704 175.872C88.24 172.475 92.4 169.84 97.184 167.968C101.968 166.096 107.168 165.16 112.784 165.16C118.469 165.16 123.669 166.096 128.384 167.968C133.168 169.84 137.328 172.475 140.864 175.872C144.4 179.2 147.139 183.152 149.08 187.728C151.021 192.235 151.992 197.192 151.992 202.6C151.992 208.008 151.021 213 149.08 217.576C147.139 222.152 144.4 226.104 140.864 229.432C137.328 232.76 133.168 235.36 128.384 237.232C123.669 239.104 118.504 240.04 112.888 240.04ZM122.976 226.312C119.856 227.56 116.459 228.184 112.784 228.184C109.109 228.184 105.712 227.56 102.592 226.312C99.472 225.064 96.768 223.296 94.48 221.008C92.192 218.651 90.3893 215.912 89.072 212.792C87.824 209.672 87.2 206.275 87.2 202.6C87.2 198.856 87.824 195.459 89.072 192.408C90.3893 189.288 92.192 186.584 94.48 184.296C96.8373 181.939 99.5413 180.136 102.592 178.888C105.712 177.64 109.109 177.016 112.784 177.016C116.459 177.016 119.856 177.64 122.976 178.888C126.096 180.136 128.8 181.939 131.088 184.296C133.376 186.584 135.144 189.288 136.392 192.408C137.709 195.459 138.368 198.856 138.368 202.6C138.368 206.344 137.709 209.776 136.392 212.896C135.144 215.947 133.376 218.651 131.088 221.008C128.8 223.296 126.096 225.064 122.976 226.312Z" fill="white"/>
<path d="M18.2152 200.969C18.2152 187.572 28.1139 177.632 39.7342 177.632L31.4456 164C17.5898 167.361 1 178.877 1 200.969C1 227.764 21.6582 239 39.7342 239C54.1949 239 64.9831 230.357 68.5696 226.035L59.1013 215.663C59.1013 215.663 50.4937 224.739 39.7342 224.739C28.9747 224.739 18.2152 214.367 18.2152 200.969Z" fill="white"/>
<path d="M39.7342 177.632C49.0304 177.632 56.519 184.259 59.1013 187.572L69 175.904C65.6105 172.614 58.297 166.464 48.3418 164L39.7342 177.632Z" fill="white"/>
<path fill-rule="evenodd" clip-rule="evenodd" d="M534.776 239V166.2H564.728C571.176 166.2 576.688 167.24 581.264 169.32C585.909 171.4 589.48 174.381 591.976 178.264C594.472 182.147 595.72 186.757 595.72 192.096C595.72 197.435 594.472 202.045 591.976 205.928C589.48 209.741 585.909 212.688 581.264 214.768C580.939 214.911 580.61 215.048 580.276 215.181L596.968 239H582.408L567.576 217.716C566.648 217.761 565.699 217.784 564.728 217.784H548.296V239H534.776ZM577.52 202.808C574.539 205.373 570.067 206.656 564.104 206.656H548.296V177.64H564.104C570.067 177.64 574.539 178.888 577.52 181.384C580.571 183.88 582.096 187.451 582.096 192.096C582.096 196.672 580.571 200.243 577.52 202.808Z" fill="white"/>
<path fill-rule="evenodd" clip-rule="evenodd" d="M780.456 239V166.2H810.408C816.856 166.2 822.368 167.24 826.944 169.32C831.589 171.4 835.16 174.381 837.656 178.264C840.152 182.147 841.4 186.757 841.4 192.096C841.4 197.435 840.152 202.045 837.656 205.928C835.16 209.811 831.589 212.792 826.944 214.872C822.368 216.952 816.856 217.992 810.408 217.992H793.976V239H780.456ZM823.2 202.808C820.218 205.304 815.746 206.552 809.784 206.552H793.976V177.64H809.784C815.746 177.64 820.218 178.888 823.2 181.384C826.25 183.88 827.776 187.451 827.776 192.096C827.776 196.672 826.25 200.243 823.2 202.808Z" fill="white"/>
</svg>
