<svg width="209" height="112" viewBox="0 0 209 112" fill="none" xmlns="http://www.w3.org/2000/svg">
<path d="M57.5229 20.6788C61.5907 20.6788 65.4255 21.535 68.9096 22.8688C77.2498 26.0618 83.58 31.9925 86.2849 35.4702L100.986 18.1064C99.0133 16.1882 96.1466 13.6169 92.5 10.9782C90.1396 9.27019 87.4524 7.53392 84.4695 5.92823C81.5809 4.37332 78.415 2.94085 75 1.77507C73.4837 1.25746 71.9184 0.792419 70.3063 0.392578L57.5229 20.6788Z" fill="#1C8EC2"/>
<path d="M195.577 32.255L208.999 15.5343C207.003 13.1427 202.893 9.55581 197 6.31667C193.524 4.40593 189.427 2.61621 184.777 1.26427C183.12 0.782467 181.393 0.356264 179.598 0L167.455 20.0361C171.901 20.0361 176.366 21.2004 180.441 22.8688C187.144 25.6133 192.795 29.7219 195.577 32.255Z" fill="#1C8EC2"/>
<path d="M57.5229 20.6788L45.2138 0.392578C44.152 0.650668 43.0794 0.941068 42 1.26427L52.5 21.1018C54.1416 20.8229 55.8198 20.6788 57.5229 20.6788Z" fill="#1C8EC2"/>
<path d="M167.455 20.0361L155.203 0C153.69 0.290034 152.177 0.633245 150.67 1.02963L162 20.4808C163.871 20.1822 165.704 20.0361 167.455 20.0361Z" fill="#1C8EC2"/>
</svg>
