<svg width="209" height="112" viewBox="0 0 209 112" fill="none" xmlns="http://www.w3.org/2000/svg">
<path d="M57.5234 20.6788C61.5913 20.6788 65.4261 21.535 68.9101 22.8688C77.2503 26.0618 83.5805 31.9925 86.2855 35.4702L100.986 18.1064C99.0139 16.1882 96.1472 13.6169 92.5005 10.9782C90.1401 9.27019 87.4529 7.53392 84.47 5.92823C81.5814 4.37332 78.4155 2.94085 75.0005 1.77507C73.4843 1.25746 71.9189 0.792419 70.3069 0.392578L57.5234 20.6788Z" fill="#1C8EC2"/>
<path d="M195.578 32.255L209 15.5343C207.003 13.1427 202.894 9.55581 197.001 6.31667C193.524 4.40593 189.427 2.61621 184.778 1.26427C183.12 0.782467 181.393 0.356264 179.599 0L167.456 20.0361C171.902 20.0361 176.366 21.2004 180.441 22.8688C187.145 25.6133 192.795 29.7219 195.578 32.255Z" fill="#1C8EC2"/>
</svg>
