<svg width="209" height="112" viewBox="0 0 209 112" fill="none" xmlns="http://www.w3.org/2000/svg">
<path fill-rule="evenodd" clip-rule="evenodd" d="M68.9101 22.8692C65.4261 21.5353 61.5913 20.6792 57.5234 20.6792L75.0005 1.77544C78.4155 2.94123 81.5814 4.37369 84.47 5.9286C87.4529 7.5343 90.1401 9.27057 92.5005 10.9786C96.1472 13.6173 99.0139 16.1886 100.986 18.1068L86.2855 35.4706C83.5805 31.9929 77.2503 26.0622 68.9101 22.8692Z" fill="#1C8EC2"/>
<path fill-rule="evenodd" clip-rule="evenodd" d="M209 15.5347L195.578 32.2554C192.795 29.7222 187.145 25.6137 180.441 22.8692C176.366 21.2008 171.902 20.0365 167.456 20.0365L184.778 1.26465C189.427 2.61659 193.524 4.40631 197.001 6.31705C202.894 9.55618 207.003 13.1431 209 15.5347Z" fill="#1C8EC2"/>
</svg>
