<svg width="209" height="112" viewBox="0 0 209 112" fill="none" xmlns="http://www.w3.org/2000/svg">
<path d="M100.346 92.7061L86.2844 77.2715C86.2844 77.2715 85.6436 77.9486 84.4695 78.9995L97.5 95.7269C98.6481 94.6294 99.6015 93.6049 100.346 92.7061Z" fill="#1C8EC2"/>
<path d="M208.999 54.1201H186.629V56.9995H208.999V54.1201Z" fill="#1C8EC2"/>
<path d="M84.4695 78.9995C83.8303 79.5717 83.033 80.2546 82.095 80.9995L93.7229 98.9995C95.1486 97.873 96.4118 96.7672 97.5 95.7269L84.4695 78.9995Z" fill="#1C8EC2"/>
<path d="M208.999 56.9995H186.629V61.4995H208.999V56.9995Z" fill="#1C8EC2"/>
<path d="M82.095 80.9995C81.1893 81.7188 80.1524 82.4957 79 83.2864L89 102.377C90.7271 101.26 92.3054 100.119 93.7229 98.9995L82.095 80.9995Z" fill="#1C8EC2"/>
<path d="M208.999 61.4995H186.629V66.9995H208.999V61.4995Z" fill="#1C8EC2"/>
</svg>
