<svg width="209" height="112" viewBox="0 0 209 112" fill="none" xmlns="http://www.w3.org/2000/svg">
<path d="M100.345 92.7061L86.2837 77.2715C86.2837 77.2715 85.6429 77.9486 84.4688 78.9995L97.4993 95.7269C98.6474 94.6294 99.6008 93.6049 100.345 92.7061Z" fill="#1C8EC2"/>
<path d="M208.999 54.1201H186.629V56.9995H208.999V54.1201Z" fill="#1C8EC2"/>
<path d="M84.4688 78.9995C83.8296 79.5717 83.0323 80.2546 82.0943 80.9995L93.7222 98.9995C95.1479 97.873 96.4111 96.7672 97.4993 95.7269L84.4688 78.9995Z" fill="#1C8EC2"/>
<path d="M208.999 56.9995H186.629V61.4995H208.999V56.9995Z" fill="#1C8EC2"/>
<path d="M82.0943 80.9995C81.1886 81.7188 80.1517 82.4957 78.9993 83.2864L88.9993 102.377C90.7264 101.26 92.3047 100.119 93.7222 98.9995L82.0943 80.9995Z" fill="#1C8EC2"/>
<path d="M78.9993 83.2864C77.7876 84.1176 76.4482 84.9639 74.9993 85.7742L82.0943 106.25C84.5999 105.046 86.9086 103.728 88.9993 102.377L78.9993 83.2864Z" fill="#1C8EC2"/>
<path d="M74.9993 85.7742C73.2211 86.7686 71.2778 87.7086 69.2031 88.4995L71.4993 110.169C75.3262 109.16 78.873 107.798 82.0943 106.25L74.9993 85.7742Z" fill="#1C8EC2"/>
<path d="M208.999 72.8946H186.629V80.9995H208.999V72.8946Z" fill="#1C8EC2"/>
<path d="M208.999 66.9995H186.629V72.8946H208.999V66.9995Z" fill="#1C8EC2"/>
<path d="M208.999 61.4995H186.629V66.9995H208.999V61.4995Z" fill="#1C8EC2"/>
</svg>
