<svg width="209" height="112" viewBox="0 0 209 112" fill="none" xmlns="http://www.w3.org/2000/svg">
<path d="M100.347 92.706L86.2849 77.2715C86.2849 77.2715 85.6441 77.9486 84.47 78.9995L97.5005 95.7269C98.6486 94.6294 99.602 93.6049 100.347 92.706Z" fill="#1C8EC2"/>
<path d="M209 54.1201H186.63V56.9995H209V54.1201Z" fill="#1C8EC2"/>
<path d="M84.47 78.9995C83.8308 79.5717 83.0335 80.2546 82.0956 80.9995L93.7234 98.9995C95.1492 97.873 96.4123 96.7672 97.5005 95.7269L84.47 78.9995Z" fill="#1C8EC2"/>
<path d="M209 56.9995H186.63V61.4995H209V56.9995Z" fill="#1C8EC2"/>
<path d="M82.0956 80.9995C81.1899 81.7188 80.153 82.4957 79.0005 83.2864L89.0005 102.377C90.7276 101.26 92.3059 100.119 93.7234 98.9995L82.0956 80.9995Z" fill="#1C8EC2"/>
<path d="M79.0005 83.2864C77.7889 84.1176 76.4495 84.9639 75.0005 85.7742L82.0956 106.25C84.6011 105.046 86.9099 103.728 89.0005 102.377L79.0005 83.2864Z" fill="#1C8EC2"/>
<path d="M75.0005 85.7742C73.2223 86.7686 71.279 87.7086 69.2044 88.4995L71.5005 110.169C75.3275 109.16 78.8742 107.798 82.0956 106.25L75.0005 85.7742Z" fill="#1C8EC2"/>
<path d="M69.2044 88.4995C66.6483 89.474 63.8927 90.2223 61.0005 90.5674L57.5234 111.999C62.4967 111.999 67.1774 111.309 71.5005 110.169L69.2044 88.4995Z" fill="#1C8EC2"/>
<path d="M186.63 80.9995V84.346C186.63 84.346 185.105 85.2668 182.501 86.3738L209 96.565V80.9995H186.63Z" fill="#1C8EC2"/>
<path d="M209 72.8946H186.63V80.9995H209V72.8946Z" fill="#1C8EC2"/>
<path d="M209 66.9995H186.63V72.8946H209V66.9995Z" fill="#1C8EC2"/>
<path d="M209 61.4995H186.63V66.9995H209V61.4995Z" fill="#1C8EC2"/>
</svg>
