<svg width="209" height="112" viewBox="0 0 209 112" fill="none" xmlns="http://www.w3.org/2000/svg">
<g clip-path="url(#clip0_341_2460)">
<path d="M57.5229 20.6788C61.5907 20.6788 65.4255 21.535 68.9096 22.8688C77.2498 26.0618 83.58 31.9925 86.2849 35.4702L100.986 18.1064C99.0133 16.1882 96.1466 13.6169 92.5 10.9782C90.1396 9.27019 87.4524 7.53392 84.4695 5.92823C81.5809 4.37332 78.415 2.94085 75 1.77507C73.4837 1.25746 71.9184 0.792419 70.3063 0.392578L57.5229 20.6788Z" fill="#1C8EC2"/>
<path d="M195.577 32.255L208.999 15.5343C207.003 13.1427 202.893 9.55581 197 6.31667C193.524 4.40593 189.427 2.61621 184.777 1.26427C183.12 0.782467 181.393 0.356264 179.598 0L167.455 20.0361C171.901 20.0361 176.366 21.2004 180.441 22.8688C187.144 25.6133 192.795 29.7219 195.577 32.255Z" fill="#1C8EC2"/>
<path d="M82.095 81C81.1893 81.7193 80.1524 82.4962 79 83.2868L89 102.377C90.7271 101.26 92.3054 100.12 93.7229 99L82.095 81Z" fill="#1C8EC2"/>
<path d="M79 83.2868C77.7883 84.1181 76.4489 84.9644 75 85.7747L82.095 106.25C84.6006 105.046 86.9093 103.729 89 102.377L79 83.2868Z" fill="#1C8EC2"/>
<path d="M75 85.7747C73.2218 86.769 71.2785 87.709 69.2038 88.5L71.5 110.17C75.3269 109.161 78.8737 107.799 82.095 106.25L75 85.7747Z" fill="#1C8EC2"/>
<path d="M69.2038 88.5C66.6478 89.4745 63.8922 90.2228 61 90.5679L57.5229 112C62.4961 112 67.1768 111.31 71.5 110.17L69.2038 88.5Z" fill="#1C8EC2"/>
<path d="M61 90.5679C59.8609 90.7038 58.7006 90.7771 57.5229 90.7771C54.3051 90.7771 51.0873 90.1512 48 88.9886L34.5 107.801C41.9559 110.649 49.8943 112 57.5229 112L61 90.5679Z" fill="#1C8EC2"/>
<path d="M48 88.9886C44.5874 87.7035 41.3343 85.7627 38.4168 83.2868L17.3529 97.5C22.431 102.027 28.2987 105.432 34.5 107.801L48 88.9886Z" fill="#1C8EC2"/>
<path d="M38.4168 83.2868C35.0864 80.4605 32.1934 76.9367 30 72.8951L4.31603 79C7.38361 86.5215 11.9157 92.6534 17.3529 97.5L38.4168 83.2868Z" fill="#1C8EC2"/>
<path d="M30 72.8951C27.2215 67.7751 25.5657 61.824 25.5657 55.4064H0C0 64.4325 1.57213 72.2722 4.31603 79L30 72.8951Z" fill="#1C8EC2"/>
<path d="M25.5657 55.4064C25.5657 48.526 27.3167 42.2583 30.3194 37L9.5 23.9663C3.73023 32.2048 0 42.6141 0 55.4064H25.5657Z" fill="#1C8EC2"/>
<path d="M30.3194 37C32.4485 33.2715 35.207 30.0505 38.4168 27.4784L23 10.5028C17.9411 14.0977 13.2823 18.5656 9.5 23.9663L30.3194 37Z" fill="#1C8EC2"/>
<path d="M38.4168 27.4784C41.2917 25.1746 44.5288 23.3913 48 22.2301L35.5 3.5896C31.2401 5.36916 26.9953 7.66373 23 10.5028L38.4168 27.4784Z" fill="#1C8EC2"/>
<path d="M57.5229 20.6788L45.2138 0.392578C44.152 0.650668 43.0794 0.941068 42 1.26427L52.5 21.1018C54.1416 20.8229 55.8198 20.6788 57.5229 20.6788Z" fill="#1C8EC2"/>
<path d="M48 22.2301C49.4617 21.7412 50.9648 21.3625 52.5 21.1018L42 1.26427C39.8502 1.90796 37.6731 2.68176 35.5 3.5896L48 22.2301Z" fill="#1C8EC2"/>
<path d="M208.999 61.5H186.629V67H208.999V61.5Z" fill="#1C8EC2"/>
<path d="M208.999 72.8951H186.629V81H208.999V72.8951Z" fill="#1C8EC2"/>
<path d="M208.999 67H186.629V72.8951H208.999V67Z" fill="#1C8EC2"/>
<path d="M186.629 81V84.3465C186.629 84.3465 185.104 85.2673 182.5 86.3743L208.999 96.5655V81H186.629Z" fill="#1C8EC2"/>
<path d="M173 89.3148C170.505 89.81 167.773 90.1344 164.898 90.1344C161.115 90.1344 156.526 89.0735 152 86.8739L150.67 109.645C155.259 110.784 159.854 111.357 164.259 111.357C173.994 111.357 183.197 109.123 190.836 106.25L173 89.3148Z" fill="#1C8EC2"/>
<path d="M208.999 96.5655L182.5 86.3743C180.121 87.3857 176.841 88.5526 173 89.3148L190.836 106.25C199.247 103.087 205.762 99.1494 208.999 96.5655Z" fill="#1C8EC2"/>
<path d="M150.67 109.645L152 86.8739C145.075 83.5082 138.297 77.4764 134.782 68.5L111.966 79C119.761 95.4999 135.179 105.799 150.67 109.645Z" fill="#1C8EC2"/>
<path d="M134.782 68.5C133.22 64.5109 132.302 59.9403 132.302 54.7637C132.302 49.6136 133.211 45.0918 134.782 41.1623L113.034 29C109.079 36.2735 106.736 44.8614 106.736 54.7637C106.736 63.9382 108.67 72.0234 111.966 79L134.782 68.5Z" fill="#1C8EC2"/>
<path d="M113.034 29L134.782 41.1623C137.11 35.3399 140.895 30.8177 145.337 27.4784L128 11.8656C121.977 16.3971 116.782 22.1086 113.034 29Z" fill="#1C8EC2"/>
<path d="M128 11.8656L145.337 27.4784C147.891 25.5582 150.662 24.0292 153.5 22.8688L139.5 5.02958C135.461 6.89044 131.584 9.16912 128 11.8656Z" fill="#1C8EC2"/>
<path d="M139.5 5.02958L153.5 22.8688C154.824 22.3273 156.163 21.8662 157.5 21.483L145.337 2.66594C143.364 3.36003 141.414 4.14791 139.5 5.02958Z" fill="#1C8EC2"/>
<path d="M145.337 2.66594L157.5 21.483C159.009 21.0507 160.516 20.7178 162 20.4808L150.67 1.02963C148.881 1.50015 147.1 2.04558 145.337 2.66594Z" fill="#1C8EC2"/>
<path d="M167.455 20.0361L155.203 0C153.69 0.290034 152.177 0.633245 150.67 1.02963L162 20.4808C163.871 20.1822 165.704 20.0361 167.455 20.0361Z" fill="#1C8EC2"/>
</g>
<defs>
<clipPath id="clip0_341_2460">
<rect width="209" height="112" fill="white"/>
</clipPath>
</defs>
</svg>
