<svg width="209" height="112" viewBox="0 0 209 112" fill="none" xmlns="http://www.w3.org/2000/svg">
<path d="M100.346 92.7061L86.2844 77.2715C86.2844 77.2715 85.6436 77.9486 84.4695 78.9995L97.5 95.7269C98.6481 94.6294 99.6015 93.6049 100.346 92.7061Z" fill="#1C8EC2"/>
<path d="M208.999 54.1201H186.629V56.9995H208.999V54.1201Z" fill="#1C8EC2"/>
<path d="M84.4695 78.9995C83.8303 79.5717 83.033 80.2546 82.095 80.9995L93.7229 98.9995C95.1487 97.873 96.4118 96.7672 97.5 95.7269L84.4695 78.9995Z" fill="#1C8EC2"/>
<path d="M208.999 56.9995H186.629V61.4995H208.999V56.9995Z" fill="#1C8EC2"/>
<path d="M208.999 61.4995H186.629V66.9995H208.999V61.4995Z" fill="#1C8EC2"/>
<path d="M208.999 66.9995H186.629V72.8946H208.999V66.9995Z" fill="#1C8EC2"/>
<path d="M208.999 72.8946H186.629V80.9995H208.999V72.8946Z" fill="#1C8EC2"/>
<path d="M186.629 80.9995V84.346C186.629 84.346 185.104 85.2668 182.5 86.3738L208.999 96.565V80.9995H186.629Z" fill="#1C8EC2"/>
<path d="M208.999 96.565L182.5 86.3738C180.121 87.3852 176.841 88.5521 173 89.3144L190.836 106.25C199.247 103.087 205.762 99.1489 208.999 96.565Z" fill="#1C8EC2"/>
<path d="M82.095 80.9995C81.1893 81.7188 80.1524 82.4957 79 83.2864L89 102.377C90.7271 101.26 92.3054 100.119 93.7229 98.9995L82.095 80.9995Z" fill="#1C8EC2"/>
<path d="M79 83.2864C77.7883 84.1176 76.4489 84.9639 75 85.7742L82.095 106.25C84.6006 105.046 86.9093 103.728 89 102.377L79 83.2864Z" fill="#1C8EC2"/>
<path d="M75 85.7742C73.2218 86.7686 71.2785 87.7086 69.2038 88.4995L71.5 110.169C75.3269 109.16 78.8737 107.798 82.095 106.25L75 85.7742Z" fill="#1C8EC2"/>
<path d="M69.2038 88.4995C66.6478 89.474 63.8922 90.2223 61 90.5674L57.5229 111.999C62.4961 111.999 67.1768 111.309 71.5 110.169L69.2038 88.4995Z" fill="#1C8EC2"/>
<path d="M61 90.5674C59.8609 90.7033 58.7006 90.7766 57.5229 90.7766C54.3051 90.7766 51.0873 90.1507 48 88.9881L34.5 107.8C41.9559 110.649 49.8943 111.999 57.5229 111.999L61 90.5674Z" fill="#1C8EC2"/>
</svg>
