<svg width="209" height="112" viewBox="0 0 209 112" fill="none" xmlns="http://www.w3.org/2000/svg">
<path d="M100.347 92.7061L86.285 77.2715C86.285 77.2715 85.6442 77.9486 84.4701 78.9995L97.5006 95.7269C98.6487 94.6294 99.6021 93.6049 100.347 92.7061Z" fill="#1C8EC2"/>
<path d="M209 54.1201H186.63V56.9995H209V54.1201Z" fill="#1C8EC2"/>
<path d="M84.4701 78.9995C83.8309 79.5717 83.0336 80.2546 82.0957 80.9995L93.7235 98.9995C95.1493 97.873 96.4124 96.7672 97.5006 95.7269L84.4701 78.9995Z" fill="#1C8EC2"/>
<path d="M209 56.9995H186.63V61.4995H209V56.9995Z" fill="#1C8EC2"/>
<path d="M82.0957 80.9995C81.19 81.7188 80.1531 82.4957 79.0006 83.2864L89.0006 102.377C90.7277 101.26 92.306 100.119 93.7235 98.9995L82.0957 80.9995Z" fill="#1C8EC2"/>
<path d="M79.0006 83.2864C77.789 84.1176 76.4496 84.9639 75.0006 85.7742L82.0957 106.25C84.6012 105.046 86.91 103.728 89.0006 102.377L79.0006 83.2864Z" fill="#1C8EC2"/>
<path d="M75.0006 85.7742C73.2224 86.7686 71.2791 87.7086 69.2045 88.4995L71.5006 110.169C75.3276 109.16 78.8743 107.798 82.0957 106.25L75.0006 85.7742Z" fill="#1C8EC2"/>
<path d="M69.2045 88.4995C66.6484 89.474 63.8928 90.2223 61.0006 90.5674L57.5235 111.999C62.4967 111.999 67.1775 111.309 71.5006 110.169L69.2045 88.4995Z" fill="#1C8EC2"/>
<path d="M61.0006 90.5674C59.8615 90.7033 58.7012 90.7766 57.5235 90.7766C54.3057 90.7766 51.0879 90.1507 48.0006 88.9881L34.5006 107.8C41.9566 110.649 49.8949 111.999 57.5235 111.999L61.0006 90.5674Z" fill="#1C8EC2"/>
<path d="M48.0006 88.9881C44.588 87.703 41.3349 85.7622 38.4174 83.2864L17.3535 97.4995C22.4316 102.026 28.2993 105.431 34.5006 107.8L48.0006 88.9881Z" fill="#1C8EC2"/>
<path d="M209 66.9995H186.63V72.8946H209V66.9995Z" fill="#1C8EC2"/>
<path d="M209 61.4995H186.63V66.9995H209V61.4995Z" fill="#1C8EC2"/>
<path d="M186.63 80.9995V84.346C186.63 84.346 185.105 85.2668 182.501 86.3738L209 96.565V80.9995H186.63Z" fill="#1C8EC2"/>
<path d="M209 72.8946H186.63V80.9995H209V72.8946Z" fill="#1C8EC2"/>
<path d="M209 96.565L182.501 86.3738C180.121 87.3852 176.841 88.5521 173.001 89.3144L190.837 106.25C199.248 103.087 205.762 99.1489 209 96.565Z" fill="#1C8EC2"/>
<path d="M173.001 89.3144C170.506 89.8095 167.774 90.1339 164.899 90.1339C161.116 90.1339 156.527 89.073 152.001 86.8734L150.671 109.645C155.259 110.784 159.855 111.357 164.26 111.357C173.994 111.357 183.198 109.123 190.837 106.25L173.001 89.3144Z" fill="#1C8EC2"/>
</svg>
