<svg width="209" height="112" viewBox="0 0 209 112" fill="none" xmlns="http://www.w3.org/2000/svg">
<path d="M100.346 92.7061L86.2848 77.2715C86.2848 77.2715 85.6439 77.9486 84.4699 78.9995L97.5004 95.7269C98.6484 94.6294 99.6019 93.6049 100.346 92.7061Z" fill="#1C8EC2"/>
<path d="M209 54.1201H186.63V56.9995H209V54.1201Z" fill="#1C8EC2"/>
<path d="M84.4699 78.9995C83.8307 79.5717 83.0334 80.2546 82.0954 80.9995L93.7232 98.9995C95.149 97.873 96.4121 96.7672 97.5004 95.7269L84.4699 78.9995Z" fill="#1C8EC2"/>
<path d="M209 56.9995H186.63V61.4995H209V56.9995Z" fill="#1C8EC2"/>
<path d="M209 61.4995H186.63V66.9995H209V61.4995Z" fill="#1C8EC2"/>
<path d="M209 66.9995H186.63V72.8946H209V66.9995Z" fill="#1C8EC2"/>
<path d="M209 72.8946H186.63V80.9995H209V72.8946Z" fill="#1C8EC2"/>
<path d="M186.63 80.9995V84.346C186.63 84.346 185.105 85.2668 182.5 86.3738L209 96.565V80.9995H186.63Z" fill="#1C8EC2"/>
<path d="M209 96.565L182.5 86.3738C180.121 87.3852 176.841 88.5521 173 89.3144L190.837 106.25C199.248 103.087 205.762 99.1489 209 96.565Z" fill="#1C8EC2"/>
<path d="M173 89.3144C170.505 89.8095 167.774 90.1339 164.899 90.1339C161.116 90.1339 156.526 89.073 152 86.8734L150.67 109.645C155.259 110.784 159.854 111.357 164.26 111.357C173.994 111.357 183.198 109.123 190.837 106.25L173 89.3144Z" fill="#1C8EC2"/>
<path d="M150.67 109.645L152 86.8734C145.075 83.5077 138.297 77.4759 134.782 68.4995L111.966 78.9995C119.762 95.4995 135.179 105.799 150.67 109.645Z" fill="#1C8EC2"/>
<path d="M82.0954 80.9995C81.1897 81.7188 80.1528 82.4957 79.0004 83.2864L89.0004 102.377C90.7275 101.26 92.3057 100.119 93.7232 98.9995L82.0954 80.9995Z" fill="#1C8EC2"/>
<path d="M79.0004 83.2864C77.7887 84.1176 76.4493 84.9639 75.0004 85.7742L82.0954 106.25C84.601 105.046 86.9097 103.728 89.0004 102.377L79.0004 83.2864Z" fill="#1C8EC2"/>
<path d="M75.0004 85.7742C73.2221 86.7686 71.2789 87.7086 69.2042 88.4995L71.5004 110.169C75.3273 109.16 78.874 107.798 82.0954 106.25L75.0004 85.7742Z" fill="#1C8EC2"/>
<path d="M69.2042 88.4995C66.6481 89.474 63.8926 90.2223 61.0004 90.5674L57.5233 111.999C62.4965 111.999 67.1772 111.309 71.5004 110.169L69.2042 88.4995Z" fill="#1C8EC2"/>
<path d="M61.0004 90.5674C59.8613 90.7033 58.7009 90.7766 57.5233 90.7766C54.3055 90.7766 51.0877 90.1507 48.0004 88.9881L34.5004 107.8C41.9563 110.649 49.8946 111.999 57.5233 111.999L61.0004 90.5674Z" fill="#1C8EC2"/>
<path d="M48.0004 88.9881C44.5878 87.703 41.3347 85.7622 38.4172 83.2864L17.3533 97.4995C22.4314 102.026 28.299 105.431 34.5004 107.8L48.0004 88.9881Z" fill="#1C8EC2"/>
<path d="M38.4172 83.2864C35.0867 80.46 32.1937 76.9363 30.0004 72.8946L4.31641 78.9995C7.38399 86.521 11.9161 92.6529 17.3533 97.4995L38.4172 83.2864Z" fill="#1C8EC2"/>
</svg>
