<svg width="209" height="112" viewBox="0 0 209 112" fill="none" xmlns="http://www.w3.org/2000/svg">
<path d="M100.346 92.7065L86.2844 77.272C86.2844 77.272 85.6436 77.9491 84.4695 79L97.5 95.7274C98.6481 94.6299 99.6015 93.6054 100.346 92.7065Z" fill="#1C8EC2"/>
<path d="M208.999 54.1206H186.629V57H208.999V54.1206Z" fill="#1C8EC2"/>
<path d="M84.4695 79C83.8303 79.5722 83.033 80.2551 82.095 81L93.7229 99C95.1487 97.8735 96.4118 96.7677 97.5 95.7274L84.4695 79Z" fill="#1C8EC2"/>
<path d="M208.999 57H186.629V61.5H208.999V57Z" fill="#1C8EC2"/>
<path d="M208.999 67H186.629V72.8951H208.999V67Z" fill="#1C8EC2"/>
<path d="M208.999 61.5H186.629V67H208.999V61.5Z" fill="#1C8EC2"/>
<path d="M208.999 72.8951H186.629V81H208.999V72.8951Z" fill="#1C8EC2"/>
<path d="M186.629 81V84.3465C186.629 84.3465 185.104 85.2673 182.5 86.3743L208.999 96.5655V81H186.629Z" fill="#1C8EC2"/>
<path d="M208.999 96.5655L182.5 86.3743C180.121 87.3857 176.841 88.5526 173 89.3148L190.836 106.25C199.247 103.087 205.762 99.1494 208.999 96.5655Z" fill="#1C8EC2"/>
<path d="M173 89.3148C170.505 89.81 167.773 90.1344 164.898 90.1344C161.115 90.1344 156.526 89.0735 152 86.8739L150.67 109.645C155.259 110.784 159.854 111.357 164.259 111.357C173.994 111.357 183.197 109.123 190.836 106.25L173 89.3148Z" fill="#1C8EC2"/>
<path d="M150.67 109.645L152 86.8739C145.075 83.5082 138.297 77.4764 134.782 68.5L111.966 79C119.761 95.4999 135.179 105.799 150.67 109.645Z" fill="#1C8EC2"/>
<path d="M134.782 68.5C133.22 64.5109 132.302 59.9403 132.302 54.7637C132.302 49.6136 133.211 45.0918 134.782 41.1623L113.034 29C109.079 36.2735 106.736 44.8614 106.736 54.7637C106.736 63.9382 108.67 72.0234 111.966 79L134.782 68.5Z" fill="#1C8EC2"/>
<path d="M82.095 81C81.1893 81.7193 80.1524 82.4962 79 83.2868L89 102.377C90.7271 101.26 92.3054 100.12 93.7229 99L82.095 81Z" fill="#1C8EC2"/>
<path d="M79 83.2868C77.7883 84.1181 76.4489 84.9644 75 85.7747L82.095 106.25C84.6006 105.046 86.9093 103.729 89 102.377L79 83.2868Z" fill="#1C8EC2"/>
<path d="M75 85.7747C73.2218 86.769 71.2785 87.709 69.2038 88.5L71.5 110.17C75.3269 109.161 78.8737 107.799 82.095 106.25L75 85.7747Z" fill="#1C8EC2"/>
<path d="M69.2038 88.5C66.6478 89.4745 63.8922 90.2228 61 90.5679L57.5229 112C62.4961 112 67.1768 111.31 71.5 110.17L69.2038 88.5Z" fill="#1C8EC2"/>
<path d="M61 90.5679C59.8609 90.7038 58.7006 90.7771 57.5229 90.7771C54.3051 90.7771 51.0873 90.1512 48 88.9886L34.5 107.801C41.9559 110.649 49.8943 112 57.5229 112L61 90.5679Z" fill="#1C8EC2"/>
<path d="M48 88.9886C44.5874 87.7035 41.3343 85.7627 38.4168 83.2868L17.3529 97.5C22.431 102.027 28.2987 105.432 34.5 107.801L48 88.9886Z" fill="#1C8EC2"/>
<path d="M38.4168 83.2868C35.0864 80.4605 32.1934 76.9367 30 72.8951L4.31603 79C7.38361 86.5215 11.9157 92.6534 17.3529 97.5L38.4168 83.2868Z" fill="#1C8EC2"/>
<path d="M30 72.8951C27.2215 67.7751 25.5657 61.824 25.5657 55.4064H0C0 64.4325 1.57213 72.2722 4.31603 79L30 72.8951Z" fill="#1C8EC2"/>
</svg>
