<svg width="209" height="112" viewBox="0 0 209 112" fill="none" xmlns="http://www.w3.org/2000/svg">
<path d="M100.346 92.7062L86.2844 77.2717C86.2844 77.2717 85.6436 77.9487 84.4695 78.9996L97.5 95.727C98.6481 94.6295 99.6015 93.605 100.346 92.7062Z" fill="#1C8EC2"/>
<path d="M208.999 54.1202H186.629V56.9996H208.999V54.1202Z" fill="#1C8EC2"/>
<path d="M84.4695 78.9996C83.8303 79.5718 83.033 80.2548 82.095 80.9996L93.7229 98.9996C95.1487 97.8731 96.4118 96.7673 97.5 95.727L84.4695 78.9996Z" fill="#1C8EC2"/>
<path d="M208.999 56.9996H186.629V61.4996H208.999V56.9996Z" fill="#1C8EC2"/>
<path d="M208.999 61.4996H186.629V66.9996H208.999V61.4996Z" fill="#1C8EC2"/>
<path d="M208.999 66.9996H186.629V72.8947H208.999V66.9996Z" fill="#1C8EC2"/>
<path d="M208.999 72.8947H186.629V80.9996H208.999V72.8947Z" fill="#1C8EC2"/>
<path d="M186.629 80.9996V84.3461C186.629 84.3461 185.104 85.2669 182.5 86.3739L208.999 96.5651V80.9996H186.629Z" fill="#1C8EC2"/>
<path d="M208.999 96.5651L182.5 86.3739C180.121 87.3853 176.841 88.5523 173 89.3145L190.836 106.25C199.247 103.087 205.762 99.149 208.999 96.5651Z" fill="#1C8EC2"/>
<path d="M173 89.3145C170.505 89.8097 167.773 90.134 164.898 90.134C161.115 90.134 156.526 89.0731 152 86.8735L150.67 109.645C155.259 110.784 159.854 111.357 164.259 111.357C173.994 111.357 183.197 109.123 190.836 106.25L173 89.3145Z" fill="#1C8EC2"/>
<path d="M150.67 109.645L152 86.8735C145.075 83.5078 138.297 77.476 134.782 68.4996L111.966 78.9996C119.761 95.4996 135.179 105.799 150.67 109.645Z" fill="#1C8EC2"/>
<path d="M113.034 28.9996L134.782 41.162C137.11 35.3395 140.895 30.8174 145.337 27.478L128 11.8652C121.977 16.3967 116.782 22.1082 113.034 28.9996Z" fill="#1C8EC2"/>
<path d="M134.782 68.4996C133.22 64.5106 132.302 59.9399 132.302 54.7633C132.302 49.6132 133.211 45.0915 134.782 41.162L113.034 28.9996C109.079 36.2731 106.736 44.861 106.736 54.7633C106.736 63.9379 108.67 72.023 111.966 78.9996L134.782 68.4996Z" fill="#1C8EC2"/>
<path d="M82.095 80.9996C81.1893 81.7189 80.1524 82.4959 79 83.2865L89 102.377C90.7271 101.26 92.3054 100.12 93.7229 98.9996L82.095 80.9996Z" fill="#1C8EC2"/>
<path d="M79 83.2865C77.7883 84.1177 76.4489 84.9641 75 85.7743L82.095 106.25C84.6006 105.046 86.9093 103.729 89 102.377L79 83.2865Z" fill="#1C8EC2"/>
<path d="M75 85.7743C73.2218 86.7687 71.2785 87.7087 69.2038 88.4996L71.5 110.17C75.3269 109.16 78.8737 107.799 82.095 106.25L75 85.7743Z" fill="#1C8EC2"/>
<path d="M69.2038 88.4996C66.6478 89.4741 63.8922 90.2224 61 90.5675L57.5229 111.999C62.4961 111.999 67.1768 111.309 71.5 110.17L69.2038 88.4996Z" fill="#1C8EC2"/>
<path d="M61 90.5675C59.8609 90.7034 58.7006 90.7768 57.5229 90.7768C54.3051 90.7768 51.0873 90.1508 48 88.9882L34.5 107.801C41.9559 110.649 49.8943 111.999 57.5229 111.999L61 90.5675Z" fill="#1C8EC2"/>
<path d="M48 88.9882C44.5874 87.7031 41.3343 85.7624 38.4168 83.2865L17.3529 97.4996C22.431 102.026 28.2987 105.431 34.5 107.801L48 88.9882Z" fill="#1C8EC2"/>
<path d="M38.4168 83.2865C35.0864 80.4601 32.1934 76.9364 30 72.8947L4.31603 78.9996C7.38361 86.5211 11.9157 92.6531 17.3529 97.4996L38.4168 83.2865Z" fill="#1C8EC2"/>
<path d="M30 72.8947C27.2215 67.7748 25.5657 61.8237 25.5657 55.4061H0C0 64.4321 1.57213 72.2718 4.31603 78.9996L30 72.8947Z" fill="#1C8EC2"/>
<path d="M25.5657 55.4061C25.5657 48.5256 27.3167 42.2579 30.3194 36.9996L9.5 23.9659C3.73023 32.2045 0 42.6137 0 55.4061H25.5657Z" fill="#1C8EC2"/>
</svg>
