<svg width="209" height="112" viewBox="0 0 209 112" fill="none" xmlns="http://www.w3.org/2000/svg">
<path d="M100.346 92.7063L86.2844 77.2718C86.2844 77.2718 85.6436 77.9488 84.4695 78.9997L97.5 95.7271C98.6481 94.6296 99.6015 93.6051 100.346 92.7063Z" fill="#1C8EC2"/>
<path d="M208.999 54.1203H186.629V56.9997H208.999V54.1203Z" fill="#1C8EC2"/>
<path d="M84.4695 78.9997C83.8303 79.5719 83.033 80.2549 82.095 80.9997L93.7229 98.9997C95.1487 97.8732 96.4118 96.7674 97.5 95.7271L84.4695 78.9997Z" fill="#1C8EC2"/>
<path d="M208.999 56.9997H186.629V61.4997H208.999V56.9997Z" fill="#1C8EC2"/>
<path d="M208.999 61.4997H186.629V66.9997H208.999V61.4997Z" fill="#1C8EC2"/>
<path d="M208.999 66.9997H186.629V72.8948H208.999V66.9997Z" fill="#1C8EC2"/>
<path d="M208.999 72.8948H186.629V80.9997H208.999V72.8948Z" fill="#1C8EC2"/>
<path d="M186.629 80.9997V84.3462C186.629 84.3462 185.104 85.267 182.5 86.374L208.999 96.5652V80.9997H186.629Z" fill="#1C8EC2"/>
<path d="M208.999 96.5652L182.5 86.374C180.121 87.3854 176.841 88.5523 173 89.3146L190.836 106.25C199.247 103.087 205.762 99.1491 208.999 96.5652Z" fill="#1C8EC2"/>
<path d="M173 89.3146C170.505 89.8097 167.773 90.1341 164.898 90.1341C161.115 90.1341 156.526 89.0732 152 86.8736L150.67 109.645C155.259 110.784 159.854 111.357 164.259 111.357C173.994 111.357 183.197 109.123 190.836 106.25L173 89.3146Z" fill="#1C8EC2"/>
<path d="M150.67 109.645L152 86.8736C145.075 83.5079 138.297 77.4761 134.782 68.4997L111.966 78.9997C119.761 95.4997 135.179 105.799 150.67 109.645Z" fill="#1C8EC2"/>
<path d="M113.034 28.9997L134.782 41.162C137.11 35.3396 140.895 30.8175 145.337 27.4781L128 11.8653C121.977 16.3968 116.782 22.1083 113.034 28.9997Z" fill="#1C8EC2"/>
<path d="M134.782 68.4997C133.22 64.5106 132.302 59.94 132.302 54.7634C132.302 49.6133 133.211 45.0916 134.782 41.162L113.034 28.9997C109.079 36.2732 106.736 44.8611 106.736 54.7634C106.736 63.938 108.67 72.0231 111.966 78.9997L134.782 68.4997Z" fill="#1C8EC2"/>
<path d="M128 11.8653L145.337 27.4781C147.891 25.558 150.662 24.0289 153.5 22.8685L139.5 5.0293C135.461 6.89016 131.584 9.16883 128 11.8653Z" fill="#1C8EC2"/>
<path d="M82.095 80.9997C81.1893 81.719 80.1524 82.4959 79 83.2866L89 102.377C90.7271 101.26 92.3054 100.12 93.7229 98.9997L82.095 80.9997Z" fill="#1C8EC2"/>
<path d="M79 83.2866C77.7883 84.1178 76.4489 84.9642 75 85.7744L82.095 106.25C84.6006 105.046 86.9093 103.729 89 102.377L79 83.2866Z" fill="#1C8EC2"/>
<path d="M75 85.7744C73.2218 86.7688 71.2785 87.7088 69.2038 88.4997L71.5 110.17C75.3269 109.161 78.8737 107.799 82.095 106.25L75 85.7744Z" fill="#1C8EC2"/>
<path d="M69.2038 88.4997C66.6478 89.4742 63.8922 90.2225 61 90.5676L57.5229 111.999C62.4961 111.999 67.1768 111.31 71.5 110.17L69.2038 88.4997Z" fill="#1C8EC2"/>
<path d="M61 90.5676C59.8609 90.7035 58.7006 90.7769 57.5229 90.7769C54.3051 90.7769 51.0873 90.1509 48 88.9883L34.5 107.801C41.9559 110.649 49.8943 111.999 57.5229 111.999L61 90.5676Z" fill="#1C8EC2"/>
<path d="M48 88.9883C44.5874 87.7032 41.3343 85.7625 38.4168 83.2866L17.3529 97.4997C22.431 102.026 28.2987 105.432 34.5 107.801L48 88.9883Z" fill="#1C8EC2"/>
<path d="M38.4168 83.2866C35.0864 80.4602 32.1934 76.9365 30 72.8948L4.31603 78.9997C7.38361 86.5212 11.9157 92.6532 17.3529 97.4997L38.4168 83.2866Z" fill="#1C8EC2"/>
<path d="M30 72.8948C27.2215 67.7749 25.5657 61.8237 25.5657 55.4061H0C0 64.4322 1.57213 72.2719 4.31603 78.9997L30 72.8948Z" fill="#1C8EC2"/>
<path d="M25.5657 55.4061C25.5657 48.5257 27.3167 42.258 30.3194 36.9997L9.5 23.966C3.73023 32.2045 0 42.6138 0 55.4061H25.5657Z" fill="#1C8EC2"/>
</svg>
