<svg width="209" height="112" viewBox="0 0 209 112" fill="none" xmlns="http://www.w3.org/2000/svg">
<path d="M100.346 92.7066L86.2844 77.2721C86.2844 77.2721 85.6436 77.9492 84.4695 79.0001L97.5 95.7274C98.6481 94.63 99.6015 93.6055 100.346 92.7066Z" fill="#1C8EC2"/>
<path d="M208.999 54.1207H186.629V57.0001H208.999V54.1207Z" fill="#1C8EC2"/>
<path d="M84.4695 79.0001C83.8303 79.5722 83.033 80.2552 82.095 81.0001L93.7229 99.0001C95.1487 97.8736 96.4118 96.7677 97.5 95.7274L84.4695 79.0001Z" fill="#1C8EC2"/>
<path d="M208.999 57.0001H186.629V61.5001H208.999V57.0001Z" fill="#1C8EC2"/>
<path d="M208.999 67.0001H186.629V72.8952H208.999V67.0001Z" fill="#1C8EC2"/>
<path d="M208.999 61.5001H186.629V67.0001H208.999V61.5001Z" fill="#1C8EC2"/>
<path d="M208.999 72.8952H186.629V81.0001H208.999V72.8952Z" fill="#1C8EC2"/>
<path d="M186.629 81.0001V84.3466C186.629 84.3466 185.104 85.2673 182.5 86.3743L208.999 96.5656V81.0001H186.629Z" fill="#1C8EC2"/>
<path d="M208.999 96.5656L182.5 86.3743C180.121 87.3858 176.841 88.5527 173 89.3149L190.836 106.251C199.247 103.087 205.762 99.1494 208.999 96.5656Z" fill="#1C8EC2"/>
<path d="M173 89.3149C170.505 89.8101 167.773 90.1345 164.898 90.1345C161.115 90.1345 156.526 89.0735 152 86.8739L150.67 109.645C155.259 110.784 159.854 111.357 164.259 111.357C173.994 111.357 183.197 109.123 190.836 106.251L173 89.3149Z" fill="#1C8EC2"/>
<path d="M150.67 109.645L152 86.8739C145.075 83.5082 138.297 77.4765 134.782 68.5001L111.966 79.0001C119.761 95.5 135.179 105.799 150.67 109.645Z" fill="#1C8EC2"/>
<path d="M113.034 29.0001L134.782 41.1624C137.11 35.34 140.895 30.8178 145.337 27.4784L128 11.8657C121.977 16.3972 116.782 22.1087 113.034 29.0001Z" fill="#1C8EC2"/>
<path d="M134.782 68.5001C133.22 64.511 132.302 59.9404 132.302 54.7638C132.302 49.6137 133.211 45.0919 134.782 41.1624L113.034 29.0001C109.079 36.2736 106.736 44.8614 106.736 54.7638C106.736 63.9383 108.67 72.0235 111.966 79.0001L134.782 68.5001Z" fill="#1C8EC2"/>
<path d="M128 11.8657L145.337 27.4784C147.891 25.5583 150.662 24.0292 153.5 22.8689L139.5 5.02965C135.461 6.89051 131.584 9.16919 128 11.8657Z" fill="#1C8EC2"/>
<path d="M139.5 5.02965L153.5 22.8689C154.824 22.3274 156.163 21.8662 157.5 21.4831L145.337 2.66602C143.364 3.3601 141.414 4.14798 139.5 5.02965Z" fill="#1C8EC2"/>
<path d="M82.095 81.0001C81.1893 81.7193 80.1524 82.4963 79 83.2869L89 102.377C90.7271 101.26 92.3054 100.12 93.7229 99.0001L82.095 81.0001Z" fill="#1C8EC2"/>
<path d="M79 83.2869C77.7883 84.1182 76.4489 84.9645 75 85.7747L82.095 106.251C84.6006 105.046 86.9093 103.729 89 102.377L79 83.2869Z" fill="#1C8EC2"/>
<path d="M75 85.7747C73.2218 86.7691 71.2785 87.7091 69.2038 88.5001L71.5 110.17C75.3269 109.161 78.8737 107.799 82.095 106.251L75 85.7747Z" fill="#1C8EC2"/>
<path d="M69.2038 88.5001C66.6478 89.4746 63.8922 90.2229 61 90.5679L57.5229 112C62.4961 112 67.1768 111.31 71.5 110.17L69.2038 88.5001Z" fill="#1C8EC2"/>
<path d="M61 90.5679C59.8609 90.7038 58.7006 90.7772 57.5229 90.7772C54.3051 90.7772 51.0873 90.1513 48 88.9887L34.5 107.801C41.9559 110.649 49.8943 112 57.5229 112L61 90.5679Z" fill="#1C8EC2"/>
<path d="M48 88.9887C44.5874 87.7036 41.3343 85.7628 38.4168 83.2869L17.3529 97.5001C22.431 102.027 28.2987 105.432 34.5 107.801L48 88.9887Z" fill="#1C8EC2"/>
<path d="M38.4168 83.2869C35.0864 80.4605 32.1934 76.9368 30 72.8952L4.31603 79.0001C7.38361 86.5216 11.9157 92.6535 17.3529 97.5001L38.4168 83.2869Z" fill="#1C8EC2"/>
<path d="M30 72.8952C27.2215 67.7752 25.5657 61.8241 25.5657 55.4065H0C0 64.4326 1.57213 72.2722 4.31603 79.0001L30 72.8952Z" fill="#1C8EC2"/>
<path d="M25.5657 55.4065C25.5657 48.526 27.3167 42.2584 30.3194 37.0001L9.5 23.9663C3.73023 32.2049 0 42.6142 0 55.4065H25.5657Z" fill="#1C8EC2"/>
<path d="M30.3194 37.0001C32.4485 33.2716 35.207 30.0506 38.4168 27.4784L23 10.5029C17.9411 14.0978 13.2823 18.5656 9.5 23.9663L30.3194 37.0001Z" fill="#1C8EC2"/>
<path d="M38.4168 27.4784C41.2917 25.1747 44.5288 23.3914 48 22.2302L35.5 3.58967C31.2401 5.36924 26.9953 7.66381 23 10.5029L38.4168 27.4784Z" fill="#1C8EC2"/>
</svg>
