<svg width="209" height="112" viewBox="0 0 209 112" fill="none" xmlns="http://www.w3.org/2000/svg">
<path d="M100.346 92.7062L86.2844 77.2717C86.2844 77.2717 85.6436 77.9487 84.4695 78.9997L97.5 95.727C98.6481 94.6296 99.6015 93.6051 100.346 92.7062Z" fill="#1C8EC2"/>
<path d="M208.999 54.1203H186.629V56.9997H208.999V54.1203Z" fill="#1C8EC2"/>
<path d="M84.4695 78.9997C83.8303 79.5718 83.033 80.2548 82.095 80.9997L93.7229 98.9997C95.1487 97.8731 96.4118 96.7673 97.5 95.727L84.4695 78.9997Z" fill="#1C8EC2"/>
<path d="M208.999 56.9997H186.629V61.4997H208.999V56.9997Z" fill="#1C8EC2"/>
<path d="M208.999 61.4997H186.629V66.9997H208.999V61.4997Z" fill="#1C8EC2"/>
<path d="M208.999 66.9997H186.629V72.8948H208.999V66.9997Z" fill="#1C8EC2"/>
<path d="M208.999 72.8948H186.629V80.9997H208.999V72.8948Z" fill="#1C8EC2"/>
<path d="M186.629 80.9997V84.3462C186.629 84.3462 185.104 85.2669 182.5 86.3739L208.999 96.5652V80.9997H186.629Z" fill="#1C8EC2"/>
<path d="M208.999 96.5652L182.5 86.3739C180.121 87.3854 176.841 88.5523 173 89.3145L190.836 106.25C199.247 103.087 205.762 99.149 208.999 96.5652Z" fill="#1C8EC2"/>
<path d="M173 89.3145C170.505 89.8097 167.773 90.1341 164.898 90.1341C161.115 90.1341 156.526 89.0731 152 86.8735L150.67 109.645C155.259 110.784 159.854 111.357 164.259 111.357C173.994 111.357 183.197 109.123 190.836 106.25L173 89.3145Z" fill="#1C8EC2"/>
<path d="M150.67 109.645L152 86.8735C145.075 83.5078 138.297 77.4761 134.782 68.4997L111.966 78.9997C119.761 95.4996 135.179 105.799 150.67 109.645Z" fill="#1C8EC2"/>
<path d="M134.782 68.4997C133.22 64.5106 132.302 59.94 132.302 54.7634C132.302 49.6132 133.211 45.0915 134.782 41.162L113.034 28.9997C109.079 36.2732 106.736 44.861 106.736 54.7634C106.736 63.9379 108.67 72.0231 111.966 78.9997L134.782 68.4997Z" fill="#1C8EC2"/>
<path d="M113.034 28.9997L134.782 41.162C137.11 35.3396 140.895 30.8174 145.337 27.478L128 11.8653C121.977 16.3968 116.782 22.1082 113.034 28.9997Z" fill="#1C8EC2"/>
<path d="M128 11.8653L145.337 27.478C147.891 25.5579 150.662 24.0288 153.5 22.8685L139.5 5.02924C135.461 6.8901 131.584 9.16878 128 11.8653Z" fill="#1C8EC2"/>
<path d="M139.5 5.02924L153.5 22.8685C154.824 22.327 156.163 21.8658 157.5 21.4826L145.337 2.6656C143.364 3.35969 141.414 4.14757 139.5 5.02924Z" fill="#1C8EC2"/>
<path d="M145.337 2.6656L157.5 21.4826C159.009 21.0504 160.516 20.7174 162 20.4805L150.67 1.0293C148.881 1.49981 147.1 2.04524 145.337 2.6656Z" fill="#1C8EC2"/>
<path d="M82.095 80.9997C81.1893 81.7189 80.1524 82.4959 79 83.2865L89 102.377C90.7271 101.26 92.3054 100.12 93.7229 98.9997L82.095 80.9997Z" fill="#1C8EC2"/>
<path d="M79 83.2865C77.7883 84.1178 76.4489 84.9641 75 85.7743L82.095 106.25C84.6006 105.046 86.9093 103.729 89 102.377L79 83.2865Z" fill="#1C8EC2"/>
<path d="M75 85.7743C73.2218 86.7687 71.2785 87.7087 69.2038 88.4997L71.5 110.17C75.3269 109.16 78.8737 107.799 82.095 106.25L75 85.7743Z" fill="#1C8EC2"/>
<path d="M69.2038 88.4997C66.6478 89.4742 63.8922 90.2224 61 90.5675L57.5229 111.999C62.4961 111.999 67.1768 111.31 71.5 110.17L69.2038 88.4997Z" fill="#1C8EC2"/>
<path d="M61 90.5675C59.8609 90.7034 58.7006 90.7768 57.5229 90.7768C54.3051 90.7768 51.0873 90.1509 48 88.9883L34.5 107.801C41.9559 110.649 49.8943 111.999 57.5229 111.999L61 90.5675Z" fill="#1C8EC2"/>
<path d="M48 88.9883C44.5874 87.7032 41.3343 85.7624 38.4168 83.2865L17.3529 97.4997C22.431 102.026 28.2987 105.432 34.5 107.801L48 88.9883Z" fill="#1C8EC2"/>
<path d="M38.4168 83.2865C35.0864 80.4601 32.1934 76.9364 30 72.8948L4.31603 78.9997C7.38361 86.5212 11.9157 92.6531 17.3529 97.4997L38.4168 83.2865Z" fill="#1C8EC2"/>
<path d="M30 72.8948C27.2215 67.7748 25.5657 61.8237 25.5657 55.4061H0C0 64.4322 1.57213 72.2718 4.31603 78.9997L30 72.8948Z" fill="#1C8EC2"/>
<path d="M25.5657 55.4061C25.5657 48.5256 27.3167 42.258 30.3194 36.9997L9.5 23.9659C3.73023 32.2045 0 42.6138 0 55.4061H25.5657Z" fill="#1C8EC2"/>
<path d="M30.3194 36.9997C32.4485 33.2712 35.207 30.0502 38.4168 27.478L23 10.5024C17.9411 14.0973 13.2823 18.5652 9.5 23.9659L30.3194 36.9997Z" fill="#1C8EC2"/>
<path d="M38.4168 27.478C41.2917 25.1743 44.5288 23.391 48 22.2298L35.5 3.58926C31.2401 5.36882 26.9953 7.6634 23 10.5024L38.4168 27.478Z" fill="#1C8EC2"/>
<path d="M48 22.2298C49.4617 21.7408 50.9648 21.3622 52.5 21.1014L42 1.26393C39.8502 1.90762 37.6731 2.68143 35.5 3.58926L48 22.2298Z" fill="#1C8EC2"/>
</svg>
